<svg xmlns="http://www.w3.org/2000/svg" width="134.639" height="40.755" viewBox="0 0 134.639 40.755">
  <g id="cloud4-logo" transform="translate(-8.6 -8.1)">
    <g id="Group_1" data-name="Group 1" transform="translate(8.6 8.1)">
      <path id="Path_1" data-name="Path 1" d="M27.951,32.516c-.293,0-.586-.059-.938-.059A10.549,10.549,0,0,0,16.458,43.013a4.438,4.438,0,0,0,.059.88v.117a1.028,1.028,0,0,1-1,1c-.117,0-.293-.059-.41-.059A10.571,10.571,0,1,1,28.89,31.109a1.087,1.087,0,0,1,.117.41,1.028,1.028,0,0,1-1,1Z" transform="translate(-8.6 -14.924)" fill="#72be8e"/>
      <path id="Path_2" data-name="Path 2" d="M33.116,43.856c0,.293-.059.586-.059.938A10.549,10.549,0,0,0,43.613,55.349a4.438,4.438,0,0,0,.88-.059h.117a1.028,1.028,0,0,1,1,1c0,.117-.059.293-.059.41A10.571,10.571,0,1,1,31.709,42.917a1.087,1.087,0,0,1,.41-.117,1.04,1.04,0,0,1,1,1.056Z" transform="translate(-15.466 -22.452)" fill="#e59730"/>
      <path id="Path_3" data-name="Path 3" d="M44.356,38.79c.293,0,.586.059.938.059A10.549,10.549,0,0,0,55.849,28.294a4.439,4.439,0,0,0-.059-.88V27.3a1.028,1.028,0,0,1,1-1c.117,0,.293.059.41.059A10.571,10.571,0,1,1,43.417,40.2a1.087,1.087,0,0,1-.117-.41,1.028,1.028,0,0,1,1-1Z" transform="translate(-22.952 -15.627)" fill="#713a8e"/>
      <path id="Path_4" data-name="Path 4" d="M39.29,27.451c0-.293.059-.586.059-.938A10.549,10.549,0,0,0,28.794,15.958a4.438,4.438,0,0,0-.88.059H27.8a1.028,1.028,0,0,1-1-1c0-.117.059-.293.059-.41A10.571,10.571,0,1,1,40.7,28.39a1.087,1.087,0,0,1-.41.117,1.04,1.04,0,0,1-1-1.056Z" transform="translate(-16.127 -8.1)" fill="#51bbec"/>
    </g>
    <g id="Group_2" data-name="Group 2" transform="translate(56.509 13.084)">
      <path id="Path_5" data-name="Path 5" d="M94.874,42.148a5.907,5.907,0,0,0,1.29,4.163,4.2,4.2,0,0,0,3.284,1.466,4.336,4.336,0,0,0,2.463-.7,9,9,0,0,0,1.935-1.994l3.108,1.876a8.2,8.2,0,0,1-3.225,3.108,9.2,9.2,0,0,1-4.4,1.056,10.2,10.2,0,0,1-3.577-.645A8.354,8.354,0,0,1,91,45.725a9.428,9.428,0,0,1-.7-3.694,9.137,9.137,0,0,1,.7-3.636,8.865,8.865,0,0,1,1.935-2.873,8.714,8.714,0,0,1,2.873-1.876A8.928,8.928,0,0,1,99.331,33a9.576,9.576,0,0,1,4.281,1,7.833,7.833,0,0,1,3.167,2.873l-3.049,2.052a6.7,6.7,0,0,0-1.818-1.818,4.4,4.4,0,0,0-2.522-.7,4.173,4.173,0,0,0-3.284,1.525A6.254,6.254,0,0,0,94.874,42.148Z" transform="translate(-90.3 -23.383)" fill="#333"/>
      <path id="Path_6" data-name="Path 6" d="M123.7,44.026V16.7h4.4V44.026Z" transform="translate(-104.114 -16.641)" fill="#333"/>
      <path id="Path_7" data-name="Path 7" d="M137,42.131a10.117,10.117,0,0,1,.645-3.518,7.884,7.884,0,0,1,1.876-2.873,9.123,9.123,0,0,1,2.932-1.935,9.909,9.909,0,0,1,3.87-.7,10.116,10.116,0,0,1,3.87.7,9.122,9.122,0,0,1,2.932,1.935A7.883,7.883,0,0,1,155,38.612a8.928,8.928,0,0,1,.645,3.518A10.2,10.2,0,0,1,155,45.708a8.714,8.714,0,0,1-1.877,2.873,9.122,9.122,0,0,1-2.932,1.935,11,11,0,0,1-7.741,0,8.527,8.527,0,0,1-2.932-1.935,9.364,9.364,0,0,1-1.876-2.873A10.2,10.2,0,0,1,137,42.131Zm9.324,5.688a4.6,4.6,0,0,0,2.052-.469,4.425,4.425,0,0,0,1.525-1.231,4.878,4.878,0,0,0,.938-1.818,8.832,8.832,0,0,0,.352-2.17,6.729,6.729,0,0,0-.352-2.17,5.926,5.926,0,0,0-.938-1.818,4.424,4.424,0,0,0-1.525-1.231,4.588,4.588,0,0,0-2.052-.41,4.334,4.334,0,0,0-1.994.41,4.424,4.424,0,0,0-1.525,1.231,4.877,4.877,0,0,0-.938,1.818,8.833,8.833,0,0,0-.352,2.17,6.73,6.73,0,0,0,.352,2.17,5.925,5.925,0,0,0,.938,1.818,4.425,4.425,0,0,0,1.525,1.231A3.594,3.594,0,0,0,146.324,47.819Z" transform="translate(-109.615 -23.424)" fill="#333"/>
      <path id="Path_8" data-name="Path 8" d="M182.475,51.427a8.642,8.642,0,0,1-5.923-1.877c-1.407-1.231-2.052-3.167-2.052-5.688v-10.2h4.4V44.038a3.981,3.981,0,0,0,.938,2.991,3.361,3.361,0,0,0,2.522.938,3.44,3.44,0,0,0,1.349-.235,2.559,2.559,0,0,0,1.114-.7,3.1,3.1,0,0,0,.7-1.231,5.622,5.622,0,0,0,.293-1.818V33.6h4.4V43.862a8.672,8.672,0,0,1-.645,3.46,6.381,6.381,0,0,1-1.7,2.346,7.174,7.174,0,0,1-2.463,1.349A9.844,9.844,0,0,1,182.475,51.427Z" transform="translate(-125.125 -23.631)" fill="#333"/>
      <path id="Path_9" data-name="Path 9" d="M207,35.306a10.952,10.952,0,0,1,.645-3.753,8.4,8.4,0,0,1,1.7-2.815,7.359,7.359,0,0,1,2.58-1.818,8.33,8.33,0,0,1,3.225-.645,7.492,7.492,0,0,1,3.284.7,8.385,8.385,0,0,1,2.4,1.818l.059-.059V16.6h4.4V43.926h-4.163l-.176-2.111-.059-.059a8.775,8.775,0,0,1-2.17,1.759,7.183,7.183,0,0,1-3.46.821,8.306,8.306,0,0,1-3.225-.586,8.008,8.008,0,0,1-2.639-1.759,7.442,7.442,0,0,1-1.759-2.873A10.572,10.572,0,0,1,207,35.306Zm13.9,0a7.007,7.007,0,0,0-1.173-4.046,4.237,4.237,0,0,0-3.518-1.642,4.29,4.29,0,0,0-3.343,1.525,6.125,6.125,0,0,0-1.349,4.163,6.314,6.314,0,0,0,1.29,4.163,4.2,4.2,0,0,0,3.4,1.583,4.325,4.325,0,0,0,3.4-1.525A6.479,6.479,0,0,0,220.9,35.306Z" transform="translate(-138.567 -16.6)" fill="#333"/>
    </g>
  </g>
</svg>
