<svg xmlns="http://www.w3.org/2000/svg" width="527" height="527" viewBox="0 0 527 527">
  <g id="Group_250" data-name="Group 250" style="mix-blend-mode: multiply;isolation: isolate">
    <rect id="Rectangle_9" data-name="Rectangle 9" width="527" height="527" transform="translate(0 0)" fill="#fff"/>
    <g id="Group_143" data-name="Group 143" transform="translate(12.543 90.336)">
      <g id="Group_62" data-name="Group 62" transform="translate(19.249)">
        <path id="Path_130" data-name="Path 130" d="M371.177,297c19.23-2.155,38.7-8.084,52.753-21.6,7.483-7.2,9.523-13.175,11.963-22.55,2.767-10.635,12.1-18.361,18.35-27.2a103.272,103.272,0,0,0,17.1-39.815c2.34-11.431,1.4-23.019.079-34.508-1.07-9.344-.163-20.39-2.008-29.354-3.436-16.674-24.674-31.6-39.731-37.412-8.427-3.252-16.927-2.651-25.328-4.775-8.864-2.245-19.03-7.452-26.566-12.479-18.561-12.385-34.381-27.936-54.9-37.628C303.495,20.52,281.3,17.648,260.033,19.545c-17.122,1.528-34.424,6.424-49.085,14.977-9.1,5.307-16.3,13.4-25.47,18.614-8.3,4.717-18.54,5.391-27.8,7.23-5.981,1.191-11.989,2.182-18.008,3.151-13.865,2.229-27.8,4.316-41.67,8.306-24,6.9-41.9,19.172-56.863,38.761C27.2,128.824,25.666,146.342,25.992,168c.148,9.781-6.835,19.288-10.682,28.521-4.516,10.825-7.884,22.044-8.843,33.733C4.559,253.491,8.5,274.35,27.036,290.3c18.208,15.662,37.976,7.02,59.878,7.141,21.807.121,38.624,11.952,57.833,20.274,26.835,11.62,54.655,17.449,84.241,15.346,13.08-.928,25.333-2.677,37.048-8.638,9.412-4.79,17.286-11.768,27.025-16C318.193,297.48,344.564,299.983,371.177,297Z" transform="translate(-6.033 -9.246)" fill="#f0f7fd"/>
        <g id="Group_40" data-name="Group 40" transform="translate(12.597 82.536)">
          <path id="Path_131" data-name="Path 131" d="M435.531,204.307H174.677c-55.108,0-111.318.68-165.952-.037-.4-5.339-.638-13.027,1.823-18.166,4.074-8.5,11.489-15.114,18.139-21.755C41,152.066,54.21,149.362,72.038,149.768c-11.388-12.29-1.65-34.545,7.494-45.106,11.341-13.1,27.9-18.44,44.595-13.744,2.545-41.406,47.056-61.322,88.246-57.633,19.367,1.734,36.084,7.6,47.462,23.293,6.63,9.154,7.894,22.108,14.4,30.318,10.751-21.423,45.5-4.437,58.139,6.756,17.665,15.652,17.322,34.181,19.077,54.929,17.2-14.266,35.62-16.421,53.411,2.63a62.617,62.617,0,0,1,14.545,25.955c2.393,8.738.3,16.258,7.478,23.093,1.033.986.543,2.113,2.161,3.036C433.091,205.6,432.438,201.482,435.531,204.307Z" transform="translate(-8.202 -32.595)" fill="#d9ebf9"/>
          <g id="Group_39" data-name="Group 39">
            <path id="Path_132" data-name="Path 132" d="M435.752,204.251H222.143q-53,0-105.99.163-26.49.1-52.99.126-13.178-.008-26.366-.074-6.458-.04-12.917-.09c-4.385-.042-8.906.211-13.28-.142-1.065-.09-1.418-.011-1.486-1.191-.042-.711-.079-1.428-.105-2.14-.069-1.86-.074-3.726.042-5.586a24.715,24.715,0,0,1,2.914-10.756c3.752-6.767,9.4-12.2,14.861-17.575,4.891-4.811,9.881-9.228,16.179-12.116a54.48,54.48,0,0,1,19.019-4.443c3.4-.237,6.819-.258,10.234-.19a.265.265,0,0,0,.184-.448c-8.606-9.576-4.806-24,.5-34.239,5.887-11.357,15.6-20.669,28.089-24.247a43,43,0,0,1,23.246.074.265.265,0,0,0,.332-.253,54.173,54.173,0,0,1,14.3-33.475c8.411-9.064,19.51-15.3,31.167-19.172a105.247,105.247,0,0,1,38.756-4.991c13.955.764,28.458,3.789,39.915,12.221a47.009,47.009,0,0,1,15.7,19.81c3.041,7.3,4.864,15.357,9.776,21.718a.269.269,0,0,0,.458,0c7.763-15.046,27.082-10.282,39.472-4.638,15.23,6.946,28.158,18.092,33.059,34.6,3.036,10.229,3.31,21.033,4.19,31.588a.268.268,0,0,0,.448.19c6.714-5.518,14.619-10.182,23.436-10.983,8.58-.78,16.685,2.509,23.336,7.779a61.416,61.416,0,0,1,17.67,23.067,51.315,51.315,0,0,1,3.995,13.08c.564,3.721.675,7.557,1.839,11.162a17.711,17.711,0,0,0,2.856,5.444,33.582,33.582,0,0,1,2.282,2.725,9.255,9.255,0,0,0,1.238,2.029,4.458,4.458,0,0,0,3.341,1.186c1.671-.253,2.029-1.212,3.715.232.258.221.632-.153.374-.374a3.133,3.133,0,0,0-2.345-1.08c-1.465.179-1.924,1.165-3.647.316-1.207-.59-1.586-1.765-2.256-2.8a16.724,16.724,0,0,0-1.639-1.771,17.4,17.4,0,0,1-3.584-6.6c-1.191-4.058-1.191-8.358-1.992-12.5a53.7,53.7,0,0,0-4.321-12.606c-7.157-15.146-22.113-31.156-40.289-29.86-9.191.653-17.412,5.454-24.384,11.183l.453.184c-1.265-15.114-1.46-31.162-9.9-44.384C335.132,93.571,323.933,86.114,312.26,81.2c-9.781-4.116-23.557-7.868-32.869-.638A17.143,17.143,0,0,0,276.846,83a18.678,18.678,0,0,0-1.149,1.491c-.221.321-.954,1.992-1.238,2.04-.653.111-2.445-3.657-2.735-4.2a60.236,60.236,0,0,1-2.793-6.387c-2.914-7.615-5.265-15.241-10.477-21.676C248.509,42,233.832,36.059,218.523,33.909a108.719,108.719,0,0,0-43.73,2.593c-12.875,3.526-25.322,9.744-34.808,19.278a55.09,55.09,0,0,0-11.23,16.153,52.716,52.716,0,0,0-3.157,9.133q-.593,2.419-.964,4.88c-.158,1.054-.053,4.432-.885,4.743-.522.2-2.466-.585-3-.69-.8-.153-1.592-.285-2.4-.4a42.923,42.923,0,0,0-6.582-.416,41.647,41.647,0,0,0-11.489,1.792,44.738,44.738,0,0,0-20.026,12.927,55.756,55.756,0,0,0-10.582,17.681c-2.4,6.382-3.831,13.655-2.061,20.379a19.794,19.794,0,0,0,4.458,8.2l.19-.453c-11.6-.237-23.462.822-33.644,6.872-5.512,3.273-9.934,7.8-14.45,12.29-4.806,4.759-9.576,9.739-12.822,15.731C8.05,190.692,8.2,197.754,8.682,204.478a.271.271,0,0,0,.264.264c55.04.711,110.08.042,165.114.037q83.848-.016,167.691,0h94A.264.264,0,0,0,435.752,204.251Z" transform="translate(-8.423 -32.803)" fill="#a1cdf0"/>
          </g>
        </g>
        <g id="Group_42" data-name="Group 42" transform="translate(52.513 208.022)">
          <path id="Path_133" data-name="Path 133" d="M132.8,102.836H61.484c-15.067,0-30.434.184-45.369-.011a10.458,10.458,0,0,1,.5-4.891c1.112-2.287,3.141-4.068,4.959-5.86,3.362-3.3,6.977-4.032,11.852-3.926-3.115-3.31-.453-9.3,2.045-12.147a11.748,11.748,0,0,1,12.195-3.7c.7-11.151,12.864-16.511,24.126-15.52,5.3.469,9.865,2.045,12.975,6.271,1.813,2.466,2.161,5.955,3.937,8.168,2.941-5.771,12.437-1.2,15.894,1.818,4.833,4.216,4.738,9.207,5.217,14.793,4.7-3.842,9.739-4.422,14.6.706a16.775,16.775,0,0,1,3.974,6.988c.653,2.356.084,4.379,2.045,6.219.285.269.148.569.59.817C132.133,103.183,131.954,102.077,132.8,102.836Z" transform="translate(-15.783 -56.399)" fill="#b4d7f3"/>
          <g id="Group_41" data-name="Group 41">
            <path id="Path_134" data-name="Path 134" d="M133.017,102.788H87.3q-22.79,0-45.575.058c-8.464.032-16.933.042-25.4-.069l.264.263a9.434,9.434,0,0,1,.548-4.927,16.445,16.445,0,0,1,3.31-4.153,24.09,24.09,0,0,1,3.7-3.246,12.428,12.428,0,0,1,4.074-1.676,22.982,22.982,0,0,1,5.412-.411.265.265,0,0,0,.184-.448c-2.292-2.514-1.233-6.345.184-9.022a12.567,12.567,0,0,1,7.631-6.429,11.767,11.767,0,0,1,6.166.042.268.268,0,0,0,.337-.253,14.3,14.3,0,0,1,3.884-8.912,20.2,20.2,0,0,1,8.5-5.112,29.046,29.046,0,0,1,10.524-1.3c3.752.211,7.647,1.017,10.74,3.262a12.506,12.506,0,0,1,4.184,5.165c.864,2.024,1.375,4.242,2.756,6a.262.262,0,0,0,.411-.053c2.071-3.947,7.22-2.656,10.487-1.2,4.137,1.85,7.689,4.817,9.017,9.3a41.892,41.892,0,0,1,1.117,8.385.266.266,0,0,0,.448.184,11.947,11.947,0,0,1,6.266-2.9,8.9,8.9,0,0,1,6.261,2.045,16.41,16.41,0,0,1,4.848,6.287,13.319,13.319,0,0,1,1.038,3.52,14.679,14.679,0,0,0,.532,2.988,4.93,4.93,0,0,0,.769,1.391,5.93,5.93,0,0,1,.68.822,1.55,1.55,0,0,0,.29.469,1.412,1.412,0,0,0,1.1.369c.4-.069.443-.311.827.011.258.221.632-.153.374-.369a1.042,1.042,0,0,0-.775-.348c-.3.032-.448.242-.775.158-.348-.09-.432-.353-.611-.611a4.9,4.9,0,0,0-.48-.569,4.456,4.456,0,0,1-.991-1.76,29.634,29.634,0,0,1-.516-3.194,14.109,14.109,0,0,0-1.175-3.5c-1.982-4.205-6.15-8.558-11.162-8.258a12.43,12.43,0,0,0-6.877,3.072l.453.19a46.988,46.988,0,0,0-1.007-8.058,13.7,13.7,0,0,0-4.137-6.788,19.977,19.977,0,0,0-5-3.173,15.529,15.529,0,0,0-6.161-1.623,5.581,5.581,0,0,0-5.3,2.893l.416-.053c-1.328-1.686-1.813-3.868-2.64-5.813a12.807,12.807,0,0,0-3.573-4.785c-3-2.524-6.872-3.541-10.709-3.9-6.925-.643-14.756.964-19.926,5.881a14.91,14.91,0,0,0-4.643,9.887l.332-.253A12.13,12.13,0,0,0,37.092,74.5a14.2,14.2,0,0,0-5.059,8.943,6.25,6.25,0,0,0,1.418,5.107l.19-.453c-3.22-.063-6.5.232-9.328,1.9a21.061,21.061,0,0,0-3.889,3.252,19.55,19.55,0,0,0-3.557,4.263,9.6,9.6,0,0,0-.8,5.528.268.268,0,0,0,.263.263c15.046.2,30.1.011,45.143.011h71.546A.264.264,0,0,0,133.017,102.788Z" transform="translate(-15.997 -56.614)" fill="#a1cdf0"/>
          </g>
        </g>
        <g id="Group_46" data-name="Group 46" transform="translate(33.214)">
          <g id="Group_43" data-name="Group 43" transform="translate(1.968 146.747)">
            <path id="Path_135" data-name="Path 135" d="M15.573,49.67a1.062,1.062,0,0,1-.748-.311,11.242,11.242,0,0,1-2-2.841,1.055,1.055,0,1,1,1.881-.954,9.189,9.189,0,0,0,1.623,2.314,1.051,1.051,0,0,1-.754,1.792Z" transform="translate(-12.708 -44.987)" fill="#b4d7f3"/>
          </g>
          <g id="Group_44" data-name="Group 44">
            <path id="Path_136" data-name="Path 136" d="M346.137,163.55a1.054,1.054,0,0,1-.659-1.876,45.459,45.459,0,0,0,4.553-4.227,1.055,1.055,0,0,1,1.534,1.449,47.9,47.9,0,0,1-4.764,4.422A1.083,1.083,0,0,1,346.137,163.55ZM13.647,159.9a1.056,1.056,0,0,1-1.043-.922,37.51,37.51,0,0,1-.269-4.648c0-.611.011-1.238.037-1.876a1.052,1.052,0,0,1,2.1.079c-.021.6-.032,1.2-.032,1.8a35.367,35.367,0,0,0,.253,4.385,1.054,1.054,0,0,1-.912,1.175Zm341.217-5.565a1.059,1.059,0,0,1-.622-.206,1.048,1.048,0,0,1-.227-1.47,49.379,49.379,0,0,0,3.346-5.244,1.052,1.052,0,1,1,1.844,1.012,50.95,50.95,0,0,1-3.489,5.475A1.068,1.068,0,0,1,354.864,154.338ZM14,147.218l-.142-.011a1.055,1.055,0,0,1-.9-1.186c.216-1.6.5-3.267.827-4.964.09-.458.179-.917.279-1.381a1.053,1.053,0,1,1,2.061.437c-.095.448-.184.9-.274,1.344-.321,1.66-.59,3.288-.806,4.848A1.055,1.055,0,0,1,14,147.218Zm346.961-4.005a1.032,1.032,0,0,1-.39-.079,1.055,1.055,0,0,1-.585-1.37c.785-1.971,1.523-3.958,2.187-5.908a1.055,1.055,0,1,1,2,.68c-.675,1.982-1.428,4.005-2.229,6.013A1.054,1.054,0,0,1,360.956,143.213ZM16.609,134.775a1.045,1.045,0,0,1-1.012-1.339c.574-2.034,1.228-4.095,1.939-6.129a1.056,1.056,0,0,1,1.992.7c-.7,1.992-1.344,4.01-1.9,6A1.053,1.053,0,0,1,16.609,134.775Zm348.442-3.6a1.094,1.094,0,0,1-.285-.042,1.051,1.051,0,0,1-.727-1.3c.569-2.04,1.075-4.095,1.5-6.113a1.056,1.056,0,0,1,2.066.443c-.443,2.055-.959,4.153-1.539,6.234A1.056,1.056,0,0,1,365.051,131.176Zm-344.226-8.4a1,1,0,0,1-.406-.084,1.053,1.053,0,0,1-.564-1.381c.833-1.966,1.729-3.931,2.677-5.839a1.052,1.052,0,1,1,1.887.933c-.928,1.876-1.808,3.8-2.619,5.728A1.059,1.059,0,0,1,20.825,122.781ZM367.7,118.739l-.153-.011a1.057,1.057,0,0,1-.9-1.191c.3-2.092.527-4.195.669-6.245a1.054,1.054,0,1,1,2.1.142c-.148,2.108-.374,4.258-.685,6.4A1.049,1.049,0,0,1,367.7,118.739ZM26.464,111.387a1.058,1.058,0,0,1-.912-1.581c1.07-1.866,2.2-3.71,3.368-5.47a1.054,1.054,0,1,1,1.76,1.159c-1.138,1.729-2.25,3.531-3.3,5.36A1.049,1.049,0,0,1,26.464,111.387Zm342.1-5.323a1.056,1.056,0,0,1-1.054-1.049c-.021-2.1-.126-4.205-.316-6.261a1.056,1.056,0,0,1,2.1-.195c.2,2.119.3,4.285.321,6.44a1.057,1.057,0,0,1-1.043,1.065ZM33.484,100.784a1.036,1.036,0,0,1-.638-.216,1.052,1.052,0,0,1-.2-1.476c.97-1.27,1.976-2.519,2.993-3.71.358-.422.727-.843,1.1-1.26a1.053,1.053,0,0,1,1.576,1.4c-.358.406-.717.817-1.07,1.233-.991,1.159-1.971,2.377-2.92,3.615A1.045,1.045,0,0,1,33.484,100.784Zm73.727-.221a.936.936,0,0,1-.169-.011,11.689,11.689,0,0,1-6.166-3.03,1.055,1.055,0,1,1,1.439-1.544,9.578,9.578,0,0,0,5.07,2.493,1.053,1.053,0,0,1-.174,2.092Zm6.3-.427a1.053,1.053,0,0,1-.269-2.071l.211-.058a20.275,20.275,0,0,0,5.307-2.35,1.054,1.054,0,1,1,1.117,1.787,22.23,22.23,0,0,1-5.866,2.6l-.232.063A1.169,1.169,0,0,1,113.508,100.136Zm10.677-6.6a1.054,1.054,0,0,1-.78-1.765,21.51,21.51,0,0,0,3.42-4.985,1.056,1.056,0,0,1,1.892.938,23.786,23.786,0,0,1-3.757,5.47A1.044,1.044,0,0,1,124.185,93.538Zm243.205-.126a1.059,1.059,0,0,1-1.038-.87c-.369-2.05-.833-4.105-1.381-6.108a1.055,1.055,0,1,1,2.034-.559c.564,2.066,1.043,4.184,1.423,6.292a1.061,1.061,0,0,1-.854,1.228A1.044,1.044,0,0,1,367.391,93.411ZM98.12,92.542a1.052,1.052,0,0,1-.975-.664,24.012,24.012,0,0,1-1.555-6.445,1.052,1.052,0,1,1,2.092-.227A22.2,22.2,0,0,0,99.1,91.092a1.061,1.061,0,0,1-.98,1.449ZM41.894,91.256a1.032,1.032,0,0,1-.748-.311,1.056,1.056,0,0,1,.005-1.491c1.507-1.486,3.088-2.956,4.711-4.369a1.052,1.052,0,0,1,1.486.1,1.063,1.063,0,0,1-.1,1.491c-1.592,1.381-3.141,2.819-4.617,4.279A1.05,1.05,0,0,1,41.894,91.256ZM51.475,82.9a1.063,1.063,0,0,1-.838-.411,1.051,1.051,0,0,1,.195-1.476c1.681-1.3,3.431-2.566,5.2-3.768a1.055,1.055,0,1,1,1.186,1.744c-1.734,1.18-3.452,2.424-5.1,3.694A1.062,1.062,0,0,1,51.475,82.9Zm78.186-.638-.142-.011a1.052,1.052,0,0,1-.9-1.186,16.974,16.974,0,0,0,.158-2.3,15.86,15.86,0,0,0-.416-3.631,1.055,1.055,0,0,1,2.055-.48,18.212,18.212,0,0,1,.469,4.111,18.7,18.7,0,0,1-.179,2.593A1.05,1.05,0,0,1,129.661,82.265ZM364,81.169a1.051,1.051,0,0,1-.98-.669,58.519,58.519,0,0,0-2.609-5.671,1.055,1.055,0,1,1,1.866-.985,61.1,61.1,0,0,1,2.7,5.887,1.052,1.052,0,0,1-.6,1.365A1,1,0,0,1,364,81.169ZM96.655,80.025l-.116-.005a1.055,1.055,0,0,1-.933-1.165,28.326,28.326,0,0,1,1.444-6.429,1.054,1.054,0,1,1,1.987.706A26.262,26.262,0,0,0,97.7,79.087,1.054,1.054,0,0,1,96.655,80.025ZM61.989,75.757a1.054,1.054,0,0,1-.538-1.96c1.829-1.091,3.715-2.145,5.607-3.13a1.054,1.054,0,1,1,.97,1.871c-1.85.964-3.7,2-5.5,3.072A1.066,1.066,0,0,1,61.989,75.757Zm64.847-5.591a1.05,1.05,0,0,1-.864-.458,15.331,15.331,0,0,0-4.242-4.116,1.052,1.052,0,1,1,1.154-1.76,17.3,17.3,0,0,1,4.822,4.68,1.058,1.058,0,0,1-.87,1.655Zm231.274-.253a1.069,1.069,0,0,1-.885-.474c-1.122-1.713-2.356-3.425-3.668-5.091a1.053,1.053,0,1,1,1.655-1.3c1.349,1.713,2.619,3.473,3.779,5.233a1.055,1.055,0,0,1-.306,1.46A1.034,1.034,0,0,1,358.11,69.912ZM73.272,69.886a1.052,1.052,0,0,1-.427-2.013c1.955-.875,3.958-1.7,5.945-2.44a1.052,1.052,0,1,1,.738,1.971c-1.945.733-3.905,1.534-5.823,2.393A1.042,1.042,0,0,1,73.272,69.886Zm27.472-1.8a1.076,1.076,0,0,1-.516-.132,1.061,1.061,0,0,1-.4-1.439,50.029,50.029,0,0,1,2.835-4.448c-1.586.116-3.241.3-4.927.543a1.052,1.052,0,1,1-.306-2.082c2.219-.327,4.379-.543,6.429-.643a1.05,1.05,0,0,1,1.1,1,.4.4,0,0,1,.005.079,1.059,1.059,0,0,1,.105,1.386,47.359,47.359,0,0,0-3.41,5.2A1.043,1.043,0,0,1,100.745,68.084ZM85.182,65.433a1.055,1.055,0,0,1-.3-2.066c.954-.29,1.918-.564,2.872-.822,1.1-.3,2.224-.574,3.346-.833a1.056,1.056,0,0,1,.464,2.061c-1.091.248-2.187.516-3.262.806-.933.253-1.876.522-2.809.806A1.06,1.06,0,0,1,85.182,65.433Zm31.341-2.25a1.14,1.14,0,0,1-.3-.042,31.367,31.367,0,0,0-6.05-1.07,1.049,1.049,0,0,1-.959-1.138,1.06,1.06,0,0,1,1.138-.964,33.624,33.624,0,0,1,6.456,1.144,1.056,1.056,0,0,1-.29,2.071ZM350.258,59.91a1.064,1.064,0,0,1-.78-.343c-1.391-1.512-2.883-3.02-4.422-4.469a1.055,1.055,0,1,1,1.449-1.534c1.576,1.486,3.1,3.025,4.527,4.574a1.057,1.057,0,0,1-.775,1.771Zm-241.93-1.992a1.051,1.051,0,0,1-.764-1.776c1.433-1.518,3-3.025,4.659-4.474a1.055,1.055,0,0,1,1.386,1.592c-1.607,1.4-3.125,2.862-4.516,4.327A1.039,1.039,0,0,1,108.328,57.918Zm232.681-6.74a1.037,1.037,0,0,1-.669-.242c-1.6-1.323-3.278-2.619-4.98-3.852a1.055,1.055,0,0,1,1.238-1.707c1.739,1.26,3.447,2.582,5.08,3.937a1.054,1.054,0,0,1-.669,1.866ZM117.877,49.538a1.054,1.054,0,0,1-.627-1.9c1.671-1.233,3.457-2.456,5.312-3.631a1.052,1.052,0,1,1,1.128,1.776c-1.808,1.154-3.552,2.345-5.186,3.552A1.039,1.039,0,0,1,117.877,49.538ZM330.722,43.71a1.076,1.076,0,0,1-.569-.163c-1.771-1.128-3.589-2.208-5.412-3.209a1.055,1.055,0,0,1,1.017-1.85c1.86,1.028,3.721,2.129,5.528,3.278a1.054,1.054,0,0,1-.564,1.945ZM128.591,42.693a1.052,1.052,0,0,1-.511-1.971c1.818-1.012,3.731-2.013,5.686-2.972a1.054,1.054,0,1,1,.928,1.892c-1.918.943-3.8,1.924-5.586,2.92A1.076,1.076,0,0,1,128.591,42.693Zm190.99-5.117a1.062,1.062,0,0,1-.448-.1c-.659-.311-1.318-.606-1.971-.9-1.254-.553-2.54-1.1-3.81-1.628a1.055,1.055,0,1,1,.806-1.95c1.286.538,2.582,1.091,3.852,1.65.669.3,1.344.6,2.018.917a1.054,1.054,0,0,1-.448,2.008ZM140.006,37.07a1.054,1.054,0,0,1-.422-2.018c1.908-.833,3.895-1.66,5.918-2.451a1.053,1.053,0,0,1,.769,1.96c-2,.785-3.963,1.6-5.844,2.419A1,1,0,0,1,140.006,37.07ZM307.834,32.7a1.015,1.015,0,0,1-.369-.069c-1.955-.733-3.963-1.449-5.96-2.124a1.054,1.054,0,0,1,.675-2c2.024.685,4.047,1.407,6.024,2.145a1.056,1.056,0,0,1-.369,2.045Zm-155.981-.285a1.052,1.052,0,0,1-.353-2.045c1.966-.7,4.005-1.375,6.066-2.029a1.053,1.053,0,0,1,.638,2.008c-2.034.648-4.058,1.323-6,2.008A1,1,0,0,1,151.853,32.416Zm143.934-3.794a1,1,0,0,1-.306-.042c-2-.606-4.053-1.2-6.087-1.744a1.048,1.048,0,0,1-.743-1.291,1.059,1.059,0,0,1,1.291-.743c2.055.553,4.126,1.149,6.15,1.76a1.053,1.053,0,0,1-.306,2.061Zm-131.808-.063a1.053,1.053,0,0,1-.29-2.066c2.013-.58,4.09-1.144,6.166-1.681a1.056,1.056,0,1,1,.527,2.045c-2.055.532-4.116,1.091-6.113,1.665A1.094,1.094,0,0,1,163.979,28.559ZM176.3,25.375a1.054,1.054,0,0,1-.232-2.082c2.055-.474,4.158-.928,6.24-1.349a1.054,1.054,0,1,1,.422,2.066c-2.071.416-4.153.864-6.187,1.339A1.31,1.31,0,0,1,176.3,25.375ZM283.5,25.312a1.264,1.264,0,0,1-.242-.026c-2.034-.485-4.116-.943-6.182-1.37a1.055,1.055,0,1,1,.427-2.066c2.087.432,4.184.9,6.24,1.381a1.055,1.055,0,0,1-.242,2.082Zm-94.739-2.461a1.054,1.054,0,0,1-.179-2.092c2.082-.364,4.2-.7,6.3-1.012a1.055,1.055,0,0,1,.311,2.087c-2.087.306-4.19.643-6.255,1A1.029,1.029,0,0,1,188.764,22.851Zm82.281-.111a1.092,1.092,0,0,1-.184-.016c-2.061-.364-4.163-.7-6.25-1.007a1.055,1.055,0,1,1,.306-2.087c2.108.311,4.227.653,6.308,1.017a1.054,1.054,0,0,1-.179,2.092ZM201.349,21a1.055,1.055,0,0,1-.126-2.1c2.108-.253,4.242-.48,6.35-.68a1.053,1.053,0,1,1,.195,2.1c-2.087.195-4.205.427-6.292.675Zm57.111-.111-.126-.011c-2.082-.242-4.205-.469-6.3-.659a1.053,1.053,0,0,1,.19-2.1c2.113.19,4.253.416,6.356.664a1.055,1.055,0,0,1-.121,2.1Zm-44.452-1.08a1.055,1.055,0,0,1-.069-2.108c2.119-.142,4.263-.258,6.377-.348a1.037,1.037,0,0,1,1.1,1.007,1.055,1.055,0,0,1-1.007,1.1c-2.1.084-4.221.2-6.324.343Zm31.783-.074h-.069c-2.092-.137-4.221-.242-6.324-.321a1.05,1.05,0,0,1-1.012-1.091,1.038,1.038,0,0,1,1.091-1.017c2.124.079,4.269.19,6.382.321a1.055,1.055,0,0,1-.069,2.108Zm-19.072-.458a1.054,1.054,0,0,1-.016-2.108c2.129-.032,4.253-.037,6.387-.016a1.054,1.054,0,0,1-.011,2.108h-.011q-3.17-.032-6.335.016Z" transform="translate(-12.335 -17.142)" fill="#b4d7f3"/>
          </g>
          <g id="Group_45" data-name="Group 45" transform="translate(324.646 147.903)">
            <path id="Path_137" data-name="Path 137" d="M74.993,48.734a1.054,1.054,0,0,1-.427-2.018,30.023,30.023,0,0,0,2.73-1.37,1.054,1.054,0,1,1,1.038,1.834c-.97.548-1.95,1.038-2.92,1.465A1,1,0,0,1,74.993,48.734Z" transform="translate(-73.938 -45.207)" fill="#b4d7f3"/>
          </g>
        </g>
        <g id="Group_50" data-name="Group 50" transform="translate(57.216 272.006)">
          <g id="Group_47" data-name="Group 47">
            <path id="Path_138" data-name="Path 138" d="M18.6,73.959a1.057,1.057,0,0,1-1.017-.78,32.629,32.629,0,0,1-.68-3.2,1.054,1.054,0,1,1,2.082-.327c.163,1,.374,2.008.632,2.983a1.048,1.048,0,0,1-.743,1.291A.981.981,0,0,1,18.6,73.959Z" transform="translate(-16.89 -68.756)" fill="#b4d7f3"/>
          </g>
          <g id="Group_48" data-name="Group 48" transform="translate(2.856 8.852)">
            <path id="Path_139" data-name="Path 139" d="M78.066,103.182c-1.054,0-2.092-.047-3.078-.142a1.054,1.054,0,1,1,.2-2.1,33.763,33.763,0,0,0,5.976-.005,1.055,1.055,0,0,1,.179,2.1C80.227,103.134,79.12,103.182,78.066,103.182Zm9.286-1.07a1.055,1.055,0,0,1-.216-2.087C89.027,99.619,91,99.092,93,98.46a1.053,1.053,0,0,1,.638,2.008c-2.066.653-4.105,1.2-6.061,1.618A1.108,1.108,0,0,1,87.352,102.112Zm-18.271-.4a1.133,1.133,0,0,1-.369-.063,18.844,18.844,0,0,1-5.623-3.262,1.053,1.053,0,1,1,1.36-1.607,16.78,16.78,0,0,0,5,2.893,1.052,1.052,0,0,1-.369,2.039Zm30.044-3.294a1.056,1.056,0,0,1-.4-2.034c1.85-.748,3.726-1.586,5.57-2.482a1.052,1.052,0,1,1,.922,1.892c-1.887.922-3.8,1.776-5.7,2.545A1.058,1.058,0,0,1,99.125,98.418ZM59.858,93.907a1.05,1.05,0,0,1-.917-.527,24.591,24.591,0,0,1-2.192-5.159c-.084-.279-.158-.564-.221-.848a1.056,1.056,0,1,1,2.066-.443c.047.232.105.458.174.685a23.315,23.315,0,0,0,1.08,2.9,1.054,1.054,0,0,1,.564-.258,38.843,38.843,0,0,0,5.876-1.223,1.051,1.051,0,0,1,1.307.711,1.062,1.062,0,0,1-.717,1.312,41.766,41.766,0,0,1-6.1,1.281,1.051,1.051,0,0,1-.39,1.428A1.064,1.064,0,0,1,59.858,93.907Zm50.365-.891a1.056,1.056,0,0,1-.527-1.971c1.813-1.038,3.557-2.119,5.186-3.215a1.054,1.054,0,0,1,1.175,1.75c-1.671,1.122-3.457,2.234-5.312,3.294A1.037,1.037,0,0,1,110.223,93.016Zm-55.836-.3h-.011a46.891,46.891,0,0,1-6.292-.506,1.055,1.055,0,1,1,.311-2.087,43.545,43.545,0,0,0,6.008.485,1.054,1.054,0,0,1-.016,2.108Zm-12.179-1.8a.92.92,0,0,1-.29-.042,47.016,47.016,0,0,1-5.934-2.15,1.055,1.055,0,1,1,.854-1.929A44.424,44.424,0,0,0,42.5,88.847a1.054,1.054,0,0,1-.3,2.066ZM72.2,88.626a1.05,1.05,0,0,1-.632-1.892,6.737,6.737,0,0,0,2.777-4.4,1.055,1.055,0,0,1,2.092.279,8.79,8.79,0,0,1-3.6,5.8A1.048,1.048,0,0,1,72.2,88.626ZM30.968,85.912a1.045,1.045,0,0,1-.564-.163,39.492,39.492,0,0,1-5.07-3.8,1.053,1.053,0,0,1,1.4-1.576,37.853,37.853,0,0,0,4.8,3.594,1.054,1.054,0,0,1-.564,1.945ZM58.14,82.149a1.011,1.011,0,0,1-.39-.079,1.046,1.046,0,0,1-.585-1.37,12.121,12.121,0,0,1,4.084-5.281,1.053,1.053,0,0,1,1.233,1.707A10.031,10.031,0,0,0,59.12,81.49,1.06,1.06,0,0,1,58.14,82.149ZM73.27,78a1.054,1.054,0,0,1-.7-.269,8.907,8.907,0,0,0-3.926-1.913,6.772,6.772,0,0,0-1.065-.169,1.055,1.055,0,0,1,.179-2.1,10.152,10.152,0,0,1,1.37.221,10.933,10.933,0,0,1,4.848,2.393,1.058,1.058,0,0,1,.079,1.491A1.045,1.045,0,0,1,73.27,78ZM21.8,77.738a1.047,1.047,0,0,1-.833-.406,32.182,32.182,0,0,1-3.426-5.365,1.055,1.055,0,0,1,1.881-.954,30.145,30.145,0,0,0,3.2,5.017,1.056,1.056,0,0,1-.179,1.481A1.045,1.045,0,0,1,21.8,77.738Z" transform="translate(-17.431 -70.435)" fill="#b4d7f3"/>
          </g>
          <g id="Group_49" data-name="Group 49" transform="translate(104.839 20.226)">
            <path id="Path_140" data-name="Path 140" d="M37.837,76.823a1.054,1.054,0,0,1-.675-1.866c.848-.711,1.613-1.4,2.271-2.055a1.055,1.055,0,0,1,1.491,1.491c-.706.7-1.512,1.433-2.414,2.182A1.056,1.056,0,0,1,37.837,76.823Z" transform="translate(-36.783 -72.593)" fill="#b4d7f3"/>
          </g>
        </g>
        <g id="Group_54" data-name="Group 54" transform="translate(395.608 125.184)">
          <g id="Group_51" data-name="Group 51" transform="translate(0 3.789)">
            <path id="Path_141" data-name="Path 141" d="M82.157,45.2a1.055,1.055,0,0,1-.543-1.96A31.857,31.857,0,0,1,84.5,41.712a1.055,1.055,0,0,1,.891,1.913c-.938.437-1.844.917-2.7,1.423A1,1,0,0,1,82.157,45.2Z" transform="translate(-81.1 -41.615)" fill="#b4d7f3"/>
          </g>
          <g id="Group_52" data-name="Group 52" transform="translate(8.635)">
            <path id="Path_142" data-name="Path 142" d="M141.731,82.309a.775.775,0,0,1-.19-.021,1.046,1.046,0,0,1-.849-1.223,19.529,19.529,0,0,0,.3-3.457,21.242,21.242,0,0,0-.137-2.429,1.055,1.055,0,0,1,2.1-.232,24.055,24.055,0,0,1,.148,2.661,21.275,21.275,0,0,1-.337,3.831A1.05,1.05,0,0,1,141.731,82.309Zm-1.212-12.242a1.051,1.051,0,0,1-1-.711,35.52,35.52,0,0,0-2.456-5.507,1.052,1.052,0,0,1,1.845-1.012,37.3,37.3,0,0,1,2.6,5.834,1.047,1.047,0,0,1-.653,1.339A.955.955,0,0,1,140.519,70.067ZM134.6,59.19a1.063,1.063,0,0,1-.843-.416,43.521,43.521,0,0,0-3.995-4.564,1.055,1.055,0,0,1,1.486-1.5,45.456,45.456,0,0,1,4.19,4.785,1.057,1.057,0,0,1-.838,1.692Zm-8.833-8.7a1.022,1.022,0,0,1-.611-.2,28.1,28.1,0,0,0-5.18-2.983,1.055,1.055,0,0,1,.833-1.939,29.75,29.75,0,0,1,5.576,3.215,1.052,1.052,0,0,1-.617,1.908Zm-11.241-5.138a1.1,1.1,0,0,1-.29-.042,59.822,59.822,0,0,0-5.955-1.349,1.054,1.054,0,0,1,.364-2.076,62.588,62.588,0,0,1,6.166,1.4,1.056,1.056,0,0,1-.285,2.071Zm-30.735-.664a1.054,1.054,0,0,1-.274-2.071,47.8,47.8,0,0,1,6.234-1.233,1.052,1.052,0,0,1,.274,2.087,46.153,46.153,0,0,0-5.955,1.18A1.018,1.018,0,0,1,83.793,44.687ZM102.3,43.2h-.079a60.893,60.893,0,0,0-6.108-.179,1.072,1.072,0,0,1-1.08-1.033,1.057,1.057,0,0,1,1.033-1.075c2.087-.042,4.205.021,6.319.184a1.053,1.053,0,0,1-.084,2.1Z" transform="translate(-82.739 -40.896)" fill="#b4d7f3"/>
          </g>
          <g id="Group_53" data-name="Group 53" transform="translate(62.689 45.124)">
            <path id="Path_143" data-name="Path 143" d="M94.05,54.174a1.051,1.051,0,0,1-.817-1.718A18.237,18.237,0,0,0,94.92,49.99a1.055,1.055,0,0,1,1.834,1.043,19.9,19.9,0,0,1-1.887,2.751A1.04,1.04,0,0,1,94.05,54.174Z" transform="translate(-92.996 -49.458)" fill="#b4d7f3"/>
          </g>
        </g>
        <g id="Group_58" data-name="Group 58" transform="translate(291.124 272.008)">
          <g id="Group_55" data-name="Group 55" transform="translate(0 4.043)">
            <path id="Path_144" data-name="Path 144" d="M64.166,74.2a1.053,1.053,0,0,1-.78-.348A14.117,14.117,0,0,1,61.4,71.077a1.055,1.055,0,1,1,1.86-1,11.783,11.783,0,0,0,1.686,2.356,1.057,1.057,0,0,1-.78,1.765Z" transform="translate(-61.274 -69.523)" fill="#b4d7f3"/>
          </g>
          <g id="Group_56" data-name="Group 56" transform="translate(6.545 6.871)">
            <path id="Path_145" data-name="Path 145" d="M98.589,82.9a1.054,1.054,0,0,1-.016-2.108c1.945-.032,3.947-.121,5.955-.269a1.054,1.054,0,1,1,.153,2.1c-2.045.153-4.09.242-6.076.274ZM92.57,82.8l-.058-.005-.448-.026c-1.808-.111-3.7-.285-5.618-.516a1.054,1.054,0,1,1,.253-2.092c1.881.227,3.731.4,5.5.506l.432.026A1.055,1.055,0,0,1,92.57,82.8Zm18.029-.775a1.053,1.053,0,0,1-.137-2.1c2.008-.263,3.984-.585,5.881-.954a1.055,1.055,0,0,1,.4,2.071c-1.939.374-3.958.706-6.008.97Zm-29.981-.675a1.268,1.268,0,0,1-.195-.016c-2.082-.39-4.084-.838-5.955-1.333a1.053,1.053,0,1,1,.543-2.034c1.818.48,3.768.917,5.8,1.291a1.055,1.055,0,0,1-.19,2.092Zm41.791-1.65a1.054,1.054,0,0,1-.274-2.071c1.982-.543,3.879-1.154,5.639-1.813a1.052,1.052,0,0,1,.738,1.971c-1.818.685-3.779,1.318-5.823,1.876A1.018,1.018,0,0,1,122.409,79.7ZM69,78.2a1.043,1.043,0,0,1-.374-.069,37.692,37.692,0,0,1-5.6-2.656,1.054,1.054,0,1,1,1.075-1.813,35.2,35.2,0,0,0,5.275,2.5A1.055,1.055,0,0,1,69,78.2Zm64.637-2.8a1.05,1.05,0,0,1-.49-1.982,32.971,32.971,0,0,0,4.906-3.141,1.055,1.055,0,0,1,1.3,1.665,34.691,34.691,0,0,1-5.223,3.336A1.037,1.037,0,0,1,133.639,75.4Z" transform="translate(-62.516 -70.06)" fill="#b4d7f3"/>
          </g>
          <g id="Group_57" data-name="Group 57" transform="translate(85.919)">
            <path id="Path_146" data-name="Path 146" d="M78.633,73.52a1.058,1.058,0,0,1-.838-1.7,18.432,18.432,0,0,0,1.618-2.509,1.054,1.054,0,1,1,1.86.991,20.048,20.048,0,0,1-1.808,2.8A1.036,1.036,0,0,1,78.633,73.52Z" transform="translate(-77.578 -68.756)" fill="#b4d7f3"/>
          </g>
        </g>
        <g id="Group_59" data-name="Group 59" transform="translate(426.403 270.688)">
          <path id="Path_147" data-name="Path 147" d="M87.386,78.31q4.285-4.838,8.917-9.36c.242-.237-.132-.606-.374-.369Q91.3,73.1,87.012,77.941c-.221.253.148.627.374.369Z" transform="translate(-86.944 -68.505)" fill="#001c31"/>
        </g>
        <g id="Group_60" data-name="Group 60" transform="translate(438.596 298.156)">
          <path id="Path_148" data-name="Path 148" d="M89.307,74.094q2.466,3.312,5.154,6.445c.221.258.6-.116.374-.369q-2.648-3.083-5.07-6.34c-.2-.269-.659-.005-.458.264Z" transform="translate(-89.258 -73.718)" fill="#001c31"/>
        </g>
        <g id="Group_61" data-name="Group 61" transform="translate(438.716 298.745)">
          <path id="Path_149" data-name="Path 149" d="M89.284,74.159a29.755,29.755,0,0,0,1.249,5.054c.111.316.622.179.511-.142a28.735,28.735,0,0,1-1.249-5.049c-.053-.337-.559-.195-.511.137Z" transform="translate(-89.28 -73.829)" fill="#001c31"/>
        </g>
      </g>
      <g id="Group_88" data-name="Group 88" transform="translate(393.293 168.336)">
        <path id="Path_150" data-name="Path 150" d="M84.066,79.472S85.141,95.361,85.5,95.983s5.676-.4,5.676-.4S93.642,79.309,93.7,79.008,84.066,79.472,84.066,79.472Z" transform="translate(-46.874 78.387)" fill="#f7a98f"/>
        <path id="Path_151" data-name="Path 151" d="M89.168,79.193S90.238,95.082,90.6,95.7s5.671-.39,5.671-.39S98.738,79.03,98.8,78.724,89.168,79.193,89.168,79.193Z" transform="translate(-25.088 77.174)" fill="#f7a98f"/>
        <path id="Path_152" data-name="Path 152" d="M85.095,83.059c.021.321-1,5.5-1.022,6.519L84.046,90.6s15.568-1.049,16.2-1.486-.543-2.229-1.159-2.735-5.507-1.391-6.493-2.045-.885-2.524-1.1-2.64-4.479.769-6.018.569Z" transform="translate(-46.959 90.114)" fill="#e1942f"/>
        <path id="Path_153" data-name="Path 153" d="M90.2,82.78c.021.316-1,5.5-1.022,6.519l-.026,1.022s15.573-1.054,16.2-1.491-.543-2.229-1.159-2.735-5.507-1.386-6.493-2.039-.885-2.524-1.1-2.646-4.474.769-6.018.569Z" transform="translate(-25.178 88.902)" fill="#e1952f"/>
        <path id="Path_154" data-name="Path 154" d="M83.908,86.174s.849-3.4,1.049-3.2c.248.232.927.406,1.449.748a3.785,3.785,0,0,0,2.435.59c3.325-.327,11.467-1.154,11.815-1.339.437-.237.743,1.555.743,1.555s-9.412,1.449-10.313,1.207-2.335-.184-2.735.3S84.2,87.17,83.908,86.174Z" transform="translate(-47.548 95.516)" fill="#001c2e"/>
        <path id="Path_155" data-name="Path 155" d="M89.009,85.89s.848-3.394,1.054-3.2c.242.232.922.406,1.444.748a3.792,3.792,0,0,0,2.44.59c3.32-.332,11.462-1.154,11.81-1.344.437-.237.743,1.555.743,1.555s-9.412,1.455-10.313,1.212-2.335-.184-2.735.3S89.3,86.891,89.009,85.89Z" transform="translate(-25.767 94.303)" fill="#001c2f"/>
        <path id="Path_156" data-name="Path 156" d="M133.65,150.452l-15.842,2.356s.432-17.075.432-23.141,3.035-16.179,3.71-17.865-12.469-18.535-12.469-18.535-2.545,57.348-2.883,58.36-15.5,2.361-15.5,2.361c-.675-2.361-3.188-39.151-2.514-43.2.474-2.83-1.365-11.436-3.2-18.777-.791-3.151-1.581-6.061-2.187-8.184-2.024-7.078-1.349-18.877-1.349-18.877l36.4,1.012s5.233,7.309,10.587,15.62c5.428,8.427,8.959,23.283,9.3,27.188C138.8,116.524,133.65,150.452,133.65,150.452Z" transform="translate(-56.838 18.673)" fill="#001c30"/>
        <path id="Path_157" data-name="Path 157" d="M128.828,81.584c-6.229,1.275-24.068,5.075-34.513,8.648a30.139,30.139,0,0,1-8.938,1.781c-.791-3.151-1.581-6.061-2.187-8.184-2.024-7.078-1.349-18.877-1.349-18.877l36.4,1.012S123.473,73.273,128.828,81.584Z" transform="translate(-56.838 18.673)" fill="#001c2f"/>
        <path id="Path_158" data-name="Path 158" d="M163.465,82.81l-.675,9.217s-5.46,3.368-10.809,6.224c-3.6,1.924-7.151,3.615-8.959,3.884a6.007,6.007,0,0,1-6.292-2.688v-.005a28.6,28.6,0,0,0,1.344,5.839c1.122,3.368,7.415,13.481,7.415,15.278s-13.481,4.943-21.122,4.943-19.32,3.821-20.669,4.047-3.373-16.627-3.373-20.9-1.117-15.5-1.117-15.5S80.1,93.6,78.533,92.7s-2.024-9.66-.9-11.457S91.566,59.891,95.16,58.32s11.462-1.8,11.462-1.8a47.368,47.368,0,0,1,9.655-1.576c6.071-.448,15.056-1.123,17.755,3.821s8.991,26.967,9.665,27.862S163.465,82.81,163.465,82.81Z" transform="translate(-77.009 -25.361)" fill="#e59730"/>
        <path id="Path_159" data-name="Path 159" d="M105.6,85.439c-3.6,1.924-7.151,3.615-8.959,3.884a6.007,6.007,0,0,1-6.292-2.688V86.63A41.68,41.68,0,0,1,89.9,75.616c.448-7.188-2.024-17.976-2.024-17.976,4.269,3.146,4.938,20,6.514,24.042C95.487,84.512,101.864,85.255,105.6,85.439Z" transform="translate(-30.622 -12.549)" fill="#f9a94b"/>
        <g id="Group_63" data-name="Group 63" transform="translate(16.664 33.579)">
          <path id="Path_160" data-name="Path 160" d="M80.426,55.984h.111a1.87,1.87,0,0,1,.269.026,4.409,4.409,0,0,1,1.091.327,8.8,8.8,0,0,1,3.5,3.1,20.026,20.026,0,0,1,2.187,4.169c.126.311.632.179.511-.137A16.551,16.551,0,0,0,84.13,57.2a6.527,6.527,0,0,0-3.078-1.676,2.784,2.784,0,0,0-.627-.063c-.337.021-.343.548,0,.527Z" transform="translate(-80.171 -55.456)" fill="#d92c09"/>
        </g>
        <g id="Group_64" data-name="Group 64" transform="translate(19.011 49.497)">
          <path id="Path_161" data-name="Path 161" d="M85.749,58.555a53.792,53.792,0,0,0-4.506,4.985,2.37,2.37,0,0,0-.627,1.138.264.264,0,0,0,.527,0c0,.063.016-.053.021-.063a1.67,1.67,0,0,1,.111-.206,6.01,6.01,0,0,1,.369-.532c.374-.5.785-.97,1.2-1.433C83.7,61.458,84.6,60.5,85.5,59.566c.206-.216.411-.427.622-.643.237-.237-.137-.611-.374-.369Z" transform="translate(-80.616 -58.476)" fill="#d92c09"/>
        </g>
        <g id="Group_65" data-name="Group 65" transform="translate(6.046 54.38)">
          <path id="Path_162" data-name="Path 162" d="M78.409,60.1c1.6-.126,3.2-.169,4.806-.158,1.365.011,2.735.063,4.095.206a13.99,13.99,0,0,1,3.573.764c.79.306,1.729.848,1.7,1.792-.011.337.516.337.527,0a2.268,2.268,0,0,0-1.407-2,10.507,10.507,0,0,0-3.441-.964,43.929,43.929,0,0,0-7.984-.274c-.622.026-1.244.058-1.866.105-.337.026-.337.553,0,.527Z" transform="translate(-78.156 -59.403)" fill="#d92c09"/>
        </g>
        <g id="Group_66" data-name="Group 66" transform="translate(8.411 52.46)">
          <path id="Path_163" data-name="Path 163" d="M78.78,59.564l4.248,1.676.611.242c.316.126.453-.385.142-.506L79.534,59.3l-.611-.242c-.316-.126-.453.385-.142.506Z" transform="translate(-78.605 -59.038)" fill="#d92c09"/>
        </g>
        <g id="Group_67" data-name="Group 67" transform="translate(55.914 41.411)">
          <path id="Path_164" data-name="Path 164" d="M87.632,57.264a68.32,68.32,0,0,1,2.482,10.951,60.5,60.5,0,0,1,.422,7.115c.053,2.53.058,5.054.121,7.584a40.97,40.97,0,0,0,.516,6.772c.063.332.574.2.506-.137a37.283,37.283,0,0,1-.474-5.934c-.074-2.535-.084-5.07-.126-7.6-.042-2.356-.074-4.722-.343-7.062a61.073,61.073,0,0,0-1.428-7.536c-.353-1.439-.727-2.877-1.17-4.29-.1-.327-.606-.184-.506.137Z" transform="translate(-87.619 -56.942)" fill="#d92c09"/>
        </g>
        <g id="Group_68" data-name="Group 68" transform="translate(63.289 61.007)">
          <path id="Path_165" data-name="Path 165" d="M92.228,60.739A13.386,13.386,0,0,0,90.6,62.81a8.667,8.667,0,0,0-1.586,4.5,5.48,5.48,0,0,0,.443,2.171c.105.263.3.754.675.653.3-.079.374-.485.432-.738.111-.5.174-1,.253-1.507a19.314,19.314,0,0,1,.427-2.119,4.156,4.156,0,0,1,.78-1.686c.227-.253-.148-.622-.374-.369a6.169,6.169,0,0,0-1.159,3,23.131,23.131,0,0,1-.506,2.825c-.021.063-.053.063-.053.116v.005c-.011-.005.063-.037.105-.042l.111.042c-.011.005-.042-.058-.037-.032-.005-.026-.069-.121-.095-.174a4.7,4.7,0,0,1-.469-1.85A7.659,7.659,0,0,1,90.9,63.331a12.406,12.406,0,0,1,1.7-2.219c.237-.242-.137-.617-.374-.374Z" transform="translate(-89.018 -60.66)" fill="#d92c09"/>
        </g>
        <g id="Group_69" data-name="Group 69" transform="translate(39.659 59.497)">
          <path id="Path_166" data-name="Path 166" d="M84.981,86.805a63.694,63.694,0,0,0,12.78-19.757,62.921,62.921,0,0,0,2.224-6.35.265.265,0,0,0-.511-.137A62.778,62.778,0,0,1,95.147,71.5a62.749,62.749,0,0,1-10.54,14.935c-.232.248.142.622.374.374Z" transform="translate(-84.534 -60.374)" fill="#d92c09"/>
        </g>
        <g id="Group_70" data-name="Group 70" transform="translate(51.523 46.39)">
          <path id="Path_167" data-name="Path 167" d="M90.288,58.116l-.042-.026.121.158c-.19,0-.274.069-.253.211l-.047.253L90,59.085c-.053.29-.111.585-.169.875-.111.585-.227,1.165-.353,1.75q-.356,1.676-.769,3.346c-.559,2.266-1.2,4.516-1.908,6.735-.105.327.4.464.506.142a103.345,103.345,0,0,0,3.283-13.149c.053-.306.121-.943-.385-.9a.37.37,0,0,0-.179.68c.3.158.564-.3.263-.453Z" transform="translate(-86.785 -57.887)" fill="#d92c09"/>
        </g>
        <path id="Path_168" data-name="Path 168" d="M106.224,87.226,93.36,91.853c-.237.084-.406-.042-.379-.279l3.357-30.824a.79.79,0,0,1,.48-.59l12.864-4.627c.237-.084.406.042.385.279l-.669,6.1L106.7,86.636A.79.79,0,0,1,106.224,87.226Z" transform="translate(-8.822 -21.661)" fill="#001c31"/>
        <path id="Path_169" data-name="Path 169" d="M86.086,67.185a4.308,4.308,0,0,0-1.723-.327,13.323,13.323,0,0,0-2.466.206c-1.539-2.213-.806-5.022-.843-7.035,1.623.337,3.51.011,5.18.09a12.79,12.79,0,0,1,4.717,1.128,13.332,13.332,0,0,1,5.022,3.547c.4.464,1.676,1.971.327,1.665-.87-.2-1.439-1.3-2.377-1.539A31.074,31.074,0,0,0,95.6,68.207a7.6,7.6,0,0,1,.184,3.831c-.258,1.713-.469,2.73-2.345,2.909-.19.016-.332-.2-.427-.184-.19.021-.4.4-.559.369-.48-.079-.522-.184-.87-.559A23.36,23.36,0,0,1,90.1,72.555c-.733-.991-1.418-2.05-2.066-3.1C87.319,68.3,86.908,67.564,86.086,67.185Z" transform="translate(-60.346 -2.352)" fill="#f7a98f"/>
        <path id="Path_170" data-name="Path 170" d="M95.934,60.034a.526.526,0,0,0-.2.121c-.142.137-.2,1.049-.016,1.043-.928.037-1.043,1.449-.348,1.839-.838.1-.722,1.233-.174,1.576-1.739.564,1.66,3.515,2.2,3.895a12.948,12.948,0,0,0,2.466,1.428c.675.279.754.285,1.223-.227,1.465-1.6,1.391-4.074,1.149-6.066-.121-.954-.306-1.881-.343-2.846-.032-.659.169-1.887-.337-2.408-.68.7-1.549,2.451-1.028,3.341a2.82,2.82,0,0,1-1.6-.179c-.733-.39-1.3-1.123-2.1-1.4A1.545,1.545,0,0,0,95.934,60.034Z" transform="translate(-1.446 -9.347)" fill="#f7a98f"/>
        <g id="Group_71" data-name="Group 71" transform="translate(31.555 65.719)">
          <path id="Path_171" data-name="Path 171" d="M84.449,61.949A10.458,10.458,0,0,1,85.8,65.021a6.205,6.205,0,0,1,.121,1.4c-.011.427.032,1.57-.622,1.5l.227.132a5.218,5.218,0,0,1-.279-1.76,6.67,6.67,0,0,0-.29-1.407,11.305,11.305,0,0,0-1.46-2.545c-.19-.279-.643-.016-.453.269a11.265,11.265,0,0,1,1.36,2.3,5.34,5.34,0,0,1,.306,1.281c.058.49.047.991.142,1.476a1.545,1.545,0,0,0,.237.68.517.517,0,0,0,.543.069,1.243,1.243,0,0,0,.743-1.049,7.273,7.273,0,0,0-.095-2.614A11.251,11.251,0,0,0,84.9,61.68a.264.264,0,0,0-.453.269Z" transform="translate(-82.996 -61.554)" fill="#7c4415"/>
        </g>
        <g id="Group_72" data-name="Group 72" transform="translate(30.146 67.417)">
          <path id="Path_172" data-name="Path 172" d="M82.776,62.259a14.524,14.524,0,0,1,1.033,1.829c.332.675.738,1.339,1.012,2.039.169.427.2,1.033.706,1.191a.974.974,0,0,0,1.244-.875c.032-.337-.5-.332-.527,0a.436.436,0,0,1-.5.385c-.163-.026-.211-.179-.253-.321a7.6,7.6,0,0,0-.622-1.481A31.074,31.074,0,0,0,83.23,62c-.19-.279-.648-.016-.453.263Z" transform="translate(-82.729 -61.876)" fill="#7c4415"/>
        </g>
        <g id="Group_73" data-name="Group 73" transform="translate(85.237 34.74)">
          <path id="Path_173" data-name="Path 173" d="M108.8,55.693c-2.941,1.038-5.876,2.092-8.79,3.2-.775.29-1.549.585-2.314.9a3.91,3.91,0,0,0-1.2.569.8.8,0,0,0-.153.527c-.042.358-.079.717-.121,1.075q-.522,4.783-1.022,9.56-.64,6.111-1.281,12.211l-.485,4.611c-.079.764-.19,1.534-.242,2.3l-.011.1c-.037.337.5.337.527,0q.3-2.822.59-5.644.625-5.921,1.249-11.836.538-5.162,1.1-10.324c.084-.754.158-1.513.253-2.266.005-.026-.042.042,0-.005.011-.011-.053.095-.074.1a1.858,1.858,0,0,0,.406-.211c.59-.269,1.2-.5,1.8-.733,3.209-1.244,6.456-2.4,9.7-3.552l.211-.074c.322-.111.184-.622-.137-.506Z" transform="translate(-93.183 -55.676)" fill="#fbfbfb"/>
        </g>
        <g id="Group_74" data-name="Group 74" transform="translate(93.166 55.369)">
          <path id="Path_174" data-name="Path 174" d="M95.171,60.1c.032-.069-.053.032-.016.011s-.063.026-.011.005c.037-.016-.021.005-.032.005l.047-.005c.011.005.069.005.026,0s.032.011.042.011l.163.053a.825.825,0,0,1,.137.053l.216.111c.142.074.279.158.416.242.311.19.611.4.906.617.248.179.5.364.706.532.121.095.237.19.358.285a.263.263,0,0,0,.374-.369c-.379-.311-.769-.611-1.159-.9a7.1,7.1,0,0,0-1.866-1.1c-.258-.084-.622-.111-.764.179-.153.306.306.569.453.269Z" transform="translate(-94.687 -59.59)" fill="#7c4415"/>
        </g>
        <g id="Group_75" data-name="Group 75" transform="translate(92.989 53.724)">
          <path id="Path_175" data-name="Path 175" d="M99.2,61.306c-.675-.453-1.365-.885-2.071-1.281a8.563,8.563,0,0,0-1.423-.675c-.4-.132-.9-.126-1.022.374a2.13,2.13,0,0,0,.416,1.46c.179.29.638.021.458-.269a2.04,2.04,0,0,1-.374-.975c0-.074.011-.121.042-.142.047-.032-.016.005.032-.011-.074.021.005,0,.042,0,.063.005-.016,0,.026.005l.116.026a2.459,2.459,0,0,1,.258.084,15.078,15.078,0,0,1,2.551,1.412q.348.221.68.443c.285.19.548-.263.269-.453Z" transform="translate(-94.654 -59.278)" fill="#7c4415"/>
        </g>
        <g id="Group_76" data-name="Group 76" transform="translate(93.184 52.103)">
          <path id="Path_176" data-name="Path 176" d="M99.462,60.812c-.754-.411-1.513-.806-2.287-1.17a11.017,11.017,0,0,0-1.486-.611c-.411-.116-.88-.105-.975.411a2.772,2.772,0,0,0,.348,1.549c.142.306.6.042.458-.269L95.5,60.7c-.026-.063.016.032-.016-.037-.037-.095-.074-.195-.111-.3a2.42,2.42,0,0,1-.158-.7c0-.032.005-.105.005-.111l.016-.063c0-.021.011-.011.016-.011-.047-.011-.026,0,.026.005.026,0,.079.011.026,0l.111.021c.09.021.179.053.269.079a19.128,19.128,0,0,1,2.751,1.275c.253.137.506.269.754.406.3.163.564-.29.269-.453Z" transform="translate(-94.691 -58.971)" fill="#7c4415"/>
        </g>
        <g id="Group_77" data-name="Group 77" transform="translate(98.28 52.105)">
          <path id="Path_177" data-name="Path 177" d="M95.849,59.488a3.406,3.406,0,0,1,.411.137l.1.042c-.021-.011-.016-.011.016.005l.047.021.195.095a4.6,4.6,0,0,1,.733.458.26.26,0,0,0,.358-.095.271.271,0,0,0-.095-.358,4.7,4.7,0,0,0-1.623-.812.264.264,0,0,0-.327.179.272.272,0,0,0,.184.327Z" transform="translate(-95.658 -58.971)" fill="#7c4415"/>
        </g>
        <g id="Group_87" data-name="Group 87" transform="translate(27.439)">
          <path id="Path_178" data-name="Path 178" d="M100.009,63.119c1.107-.87,2.935-5.671,2.935-7.162.011-2.266-1.655-3.3-2.414-5.075a5.188,5.188,0,0,1,.538,4.032,4.915,4.915,0,0,0-3.916-5.533c-3.341-.875-6.993.4-10.25,1.1-2.646.569-3.183,2.825-3.852,5.333-.364,1.365-1.028,3.394-.664,4.822.248,1,4.211,12.68,4.211,12.68,2.762-2.5,6.024-7.083,8.79-9.581A37.406,37.406,0,0,1,100.125,60C100.394,59.83,99.751,63.324,100.009,63.119Z" transform="translate(-81.935 -49.084)" fill="#001c31"/>
          <path id="Path_179" data-name="Path 179" d="M85.676,52.056s.975,12.6.263,13.691-4.132,1.818-3.684,1.918,2.071,5.4,10.134,5.771a10.157,10.157,0,0,0,4.8-.769,3.018,3.018,0,0,0,.016-5.454A2.716,2.716,0,0,1,95.663,65.7a18.793,18.793,0,0,1-.669-5.476Z" transform="translate(-82.215 -36.393)" fill="#f7a98f"/>
          <path id="Path_180" data-name="Path 180" d="M91.25,50.348A6.782,6.782,0,0,0,88.1,54.669c-.111,1.228-.59,2.688-1.671,2.609s-1.049-3.051-3.136-2.1-.559,6.767,2.514,6.35c0,0,.553,3.879,2.329,5.054s5,3.61,7.736,3.278,4.443-3.093,4.316-8.917,1.228-10.54-.875-10.219S91.25,50.348,91.25,50.348Z" transform="translate(-81.729 -43.686)" fill="#f7a98f"/>
          <path id="Path_181" data-name="Path 181" d="M84.286,52.984a15.139,15.139,0,0,0,5.165.084s.348,2.319-2.509,2.213C85.04,55.213,84.286,52.984,84.286,52.984Z" transform="translate(-73.374 -32.43)" fill="#fff"/>
          <g id="Group_78" data-name="Group 78" transform="translate(2.382 2.184)">
            <path id="Path_182" data-name="Path 182" d="M83.05,51.062a5.81,5.81,0,0,1,2.029-.985,3.432,3.432,0,0,1,2.134.3,4.043,4.043,0,0,1,2.155,3.568c.011.337.538.337.527,0a4.563,4.563,0,0,0-2.419-4.021,4,4,0,0,0-2.3-.39,5.769,5.769,0,0,0-2.387,1.075c-.279.19-.016.643.263.453Z" transform="translate(-82.667 -49.498)" fill="#016fc2"/>
          </g>
          <g id="Group_79" data-name="Group 79" transform="translate(8.857 2.024)">
            <path id="Path_183" data-name="Path 183" d="M83.959,49.927c.9,1.107,1.792,2.572,1.249,4.032-.121.316.39.453.506.137.611-1.644-.369-3.3-1.381-4.537-.216-.263-.585.111-.374.369Z" transform="translate(-83.896 -49.468)" fill="#016fc2"/>
          </g>
          <g id="Group_80" data-name="Group 80" transform="translate(14.671 16.705)">
            <path id="Path_184" data-name="Path 184" d="M85.394,54.769a2.354,2.354,0,0,0,1.08-2.324.269.269,0,0,0-.327-.184.278.278,0,0,0-.184.321c0-.032.005.026.005.037l.005.074v.132a1.342,1.342,0,0,1-.016.227,1.674,1.674,0,0,1-.069.269,1.375,1.375,0,0,1-.084.227,1.777,1.777,0,0,1-.68.764.266.266,0,0,0,.269.458Z" transform="translate(-84.999 -52.254)" fill="#7c4415"/>
          </g>
          <g id="Group_81" data-name="Group 81" transform="translate(3.235 15.448)">
            <path id="Path_185" data-name="Path 185" d="M82.844,52.335c.659,2.045.743,4.342,2.034,6.134a12.027,12.027,0,0,0,4.569,3.789,6.419,6.419,0,0,0,3.115.7c.337-.021.343-.548,0-.527a7.873,7.873,0,0,1-5.18-2.1,11.628,11.628,0,0,1-1.955-1.987,7.769,7.769,0,0,1-1.217-2.7c-.306-1.144-.49-2.314-.854-3.441-.105-.321-.617-.184-.511.137Z" transform="translate(-82.829 -52.015)" fill="#7c4415"/>
          </g>
          <g id="Group_82" data-name="Group 82" transform="translate(18.357 1.853)">
            <path id="Path_186" data-name="Path 186" d="M85.775,49.818a4.528,4.528,0,0,1-.037,4.817.262.262,0,0,0,.453.263,5.05,5.05,0,0,0,.037-5.344c-.19-.279-.648-.016-.453.264Z" transform="translate(-85.699 -49.435)" fill="#016fc2"/>
          </g>
          <g id="Group_83" data-name="Group 83" transform="translate(8.47 12.01)">
            <path id="Path_187" data-name="Path 187" d="M84.22,52.465a4.784,4.784,0,0,1,.938-.411,2.686,2.686,0,0,1,1-.158,3.844,3.844,0,0,1,1.613.833c.279.195.543-.264.263-.453a4.078,4.078,0,0,0-1.876-.906,3.012,3.012,0,0,0-1.1.169,5.226,5.226,0,0,0-1.1.474c-.3.163-.032.622.269.453Z" transform="translate(-83.823 -51.363)" fill="#001c31"/>
          </g>
          <g id="Group_84" data-name="Group 84" transform="translate(15.482 11.887)">
            <path id="Path_188" data-name="Path 188" d="M85.606,52.512c.622-.622,2.008-1.012,2.64-.2a.255.255,0,0,0,.369,0,.264.264,0,0,0,0-.369,1.838,1.838,0,0,0-1.618-.6,2.882,2.882,0,0,0-1.765.79c-.242.237.132.611.374.374Z" transform="translate(-85.153 -51.339)" fill="#001c31"/>
          </g>
          <g id="Group_85" data-name="Group 85" transform="translate(8.796 10.006)">
            <path id="Path_189" data-name="Path 189" d="M84.283,51.8a2.987,2.987,0,0,1,2.682.053c.3.158.564-.3.263-.458a3.567,3.567,0,0,0-3.209-.053c-.306.153-.037.606.263.458Z" transform="translate(-83.884 -50.983)" fill="#001c31"/>
          </g>
          <g id="Group_86" data-name="Group 86" transform="translate(15.74 10.144)">
            <path id="Path_190" data-name="Path 190" d="M85.6,51.87a2.69,2.69,0,0,1,1.381-.332,4.01,4.01,0,0,1,.569.053c.09.021.184.037.274.063a.364.364,0,0,1,.169.084.262.262,0,1,0,.263-.453,1.251,1.251,0,0,0-.564-.2,5.434,5.434,0,0,0-.711-.074,3.2,3.2,0,0,0-1.644.406c-.3.163-.032.617.264.453Z" transform="translate(-85.202 -51.009)" fill="#001c31"/>
          </g>
          <path id="Path_191" data-name="Path 191" d="M86.169,52.734a1.091,1.091,0,1,1-.833-1.3A1.1,1.1,0,0,1,86.169,52.734Z" transform="translate(-74.535 -39.163)" fill="#001c31"/>
          <path id="Path_192" data-name="Path 192" d="M87.452,52.709a1.09,1.09,0,1,1-.827-1.3A1.095,1.095,0,0,1,87.452,52.709Z" transform="translate(-69.057 -39.254)" fill="#001c31"/>
        </g>
      </g>
      <g id="Group_116" data-name="Group 116" transform="translate(294.389 36.547)">
        <path id="Path_193" data-name="Path 193" d="M66.3,51.46s-1.539,10.334-1.138,12.105,4.706,4.732,5.186,4.585,4.406-6.234,4.406-6.234l6-14.745Z" transform="translate(-28.991 74.533)" fill="#f7a98f"/>
        <path id="Path_194" data-name="Path 194" d="M69.849,53.564s-.39,10.44.2,12.158,5.2,4.19,5.655,3.984,3.7-6.682,3.7-6.682l1.565-15.757Z" transform="translate(-9.214 74.943)" fill="#f7a98f"/>
        <path id="Path_195" data-name="Path 195" d="M66.2,50.588a1.458,1.458,0,0,0-.211.337,25.007,25.007,0,0,0-1.6,4.606c.058.353,4.917,3.4,5.3,3.125a.875.875,0,0,1,.812-.095l.6,1.233a69.466,69.466,0,0,0,9.3,3.763c3.383.88,4.416.137,4.69-.163a5.376,5.376,0,0,0,.3-1.887,41.035,41.035,0,0,1-4.711-.411c-2.219-.353-7.283-3.552-9.533-5.85S66.2,50.588,66.2,50.588Z" transform="translate(-32 89.128)" fill="#016fc2"/>
        <path id="Path_196" data-name="Path 196" d="M67.1,49.741c-.738.337-2.287,5.781-2.456,6.092s6.988,6.124,8.933,7.462,9.475,2.651,10.2,2.424,1.054-2.335.659-3.42-7.067-7.046-7.088-7.62c-.005-.216.026-.8.069-1.428a2.451,2.451,0,0,0-2.856-2.6,1.757,1.757,0,0,0-.706.29c-1.159.838-1.476,3.515-2.4,3.6S67.1,49.741,67.1,49.741Z" transform="translate(-30.929 85.511)" fill="#001c2e"/>
        <path id="Path_197" data-name="Path 197" d="M70.474,51.114a1.433,1.433,0,0,0-.169.358,24.9,24.9,0,0,0-1.091,4.754c.095.343,5.265,2.846,5.618,2.524a.882.882,0,0,1,.8-.19l.733,1.165a69.435,69.435,0,0,0,9.649,2.714c3.462.506,4.406-.348,4.648-.675a5.434,5.434,0,0,0,.09-1.908,41.265,41.265,0,0,1-4.727.111c-2.245-.111-7.631-2.735-10.118-4.764S70.474,51.114,70.474,51.114Z" transform="translate(-11.414 91.374)" fill="#016fc2"/>
        <path id="Path_198" data-name="Path 198" d="M71.162,50.251c-.7.416-1.639,6-1.771,6.329s7.615,5.317,9.7,6.429S88.8,64.6,89.491,64.3s.79-2.44.279-3.473-7.8-6.229-7.884-6.793c-.032-.221-.063-.8-.09-1.433a2.446,2.446,0,0,0-3.12-2.271,1.846,1.846,0,0,0-.675.364c-1.059.964-1.08,3.663-1.987,3.842S71.162,50.251,71.162,50.251Z" transform="translate(-10.637 87.583)" fill="#001c2f"/>
        <path id="Path_199" data-name="Path 199" d="M131.161,100.3c-4.116,1.217-14.856-1.012-14.856-1.012l.6-16.943.269-7.663-9.544,23.388c-2.013.875-13.475-2.155-13.475-2.155s.443-12.385,3.078-20.326S101.7,64.7,100.869,64.568s-31.4,2.145-38.392,1.028c-2.382-.379-4.659-5.012-4.169-10.224A51.33,51.33,0,0,1,60.432,45.3l1.7-7.41s11.531.48,12.553.474c.7-.005,27.42,4.943,44.711,8.9,8.179,1.871,14.245,3.52,14.445,4.321.216.864-.042,6.988-.469,14.63C132.568,80.589,131.161,100.3,131.161,100.3Z" transform="translate(-58.241 34.911)" fill="#fff"/>
        <path id="Path_200" data-name="Path 200" d="M85.841,58.62c-3.758,6.066-12.369,13.017-16.469,16.137l.269-7.663S74.9,53.429,74.948,47.806c.026-2.93-1.56-5.929-3.083-8.137,8.179,1.871,14.245,3.52,14.445,4.321C86.526,44.855,86.268,50.978,85.841,58.62Z" transform="translate(-10.713 42.503)" fill="#f0f7fd"/>
        <g id="Group_89" data-name="Group 89" transform="translate(58.666 83.455)">
          <path id="Path_201" data-name="Path 201" d="M69.893,66.123c.759-3.12,1.628-6.229,2.646-9.275.337-1.028.7-2.05,1.107-3.051.364-.891.843-1.739,1.149-2.656a19.632,19.632,0,0,0,.738-6.761,33.1,33.1,0,0,0-.374-4.274c-.053-.337-.564-.2-.511.137a32.365,32.365,0,0,1,.337,3.52,21.941,21.941,0,0,1-.522,6.661,20.751,20.751,0,0,1-1.1,2.7c-.406.954-.764,1.924-1.1,2.9-.717,2.082-1.339,4.195-1.924,6.313-.332,1.212-.659,2.424-.954,3.642a.265.265,0,0,0,.511.137Z" transform="translate(-69.373 -39.912)" fill="#016fc2"/>
        </g>
        <g id="Group_90" data-name="Group 90" transform="translate(42.362 91.236)">
          <path id="Path_202" data-name="Path 202" d="M66.772,49.763c.474-.791.985-1.56,1.507-2.319a28.542,28.542,0,0,1,3.273-4.105,6.127,6.127,0,0,1,1.881-1.423c.311-.126.179-.638-.137-.506a9.942,9.942,0,0,0-3.557,3.178,44.192,44.192,0,0,0-2.867,4.026q-.285.435-.553.885a.262.262,0,0,0,.453.264Z" transform="translate(-66.28 -41.389)" fill="#016fc2"/>
        </g>
        <g id="Group_91" data-name="Group 91" transform="translate(43.539 89.103)">
          <path id="Path_203" data-name="Path 203" d="M68.163,41.115a13.908,13.908,0,0,0-1.128,2.735,8.853,8.853,0,0,0-.216,5.291c.105.316.617.179.511-.142a8.394,8.394,0,0,1,.237-5.086,13.312,13.312,0,0,1,1.049-2.535c.169-.3-.29-.564-.453-.264Z" transform="translate(-66.503 -40.984)" fill="#016fc2"/>
        </g>
        <g id="Group_92" data-name="Group 92" transform="translate(5.112 76.463)">
          <path id="Path_204" data-name="Path 204" d="M60.738,39.036c-.011-.011.005-.058-.005.005.005-.037.005.079.005.121a2.356,2.356,0,0,1-.074.422c-.105.48-.253.949-.39,1.418a26.344,26.344,0,0,0-.943,4.179,11.46,11.46,0,0,0,.316,4.859A4.108,4.108,0,0,0,60.806,52.1a8.456,8.456,0,0,0,3.51,1.386,39.758,39.758,0,0,0,5.591.711c2.266.153,4.543.206,6.814.211q3.589,0,7.178-.148,3.32-.127,6.635-.343c1.729-.116,3.457-.242,5.18-.4.98-.09,1.966-.169,2.941-.311a2.032,2.032,0,0,0,.258-.042.437.437,0,0,0,.116-.042c.011-.011.105-.074.1-.1-.016-.047-.348.174-.348.069l.063.069c.084.142.216.269.311.406.153.216.306.432.453.653.285.427.564.859.854,1.281.142.206.332.611.638.464l-.4-.227c-.011-.105.016-.063-.016-.005s-.042.116-.063.169l-.237.653c-.3.8-.59,1.6-.875,2.393q-1.423,3.968-2.73,7.974c-1.07,3.3-2.071,6.635-2.946,10a68.867,68.867,0,0,0-1.9,9.454,21.843,21.843,0,0,0-.163,3.71,6.88,6.88,0,0,0,.59,2.682,3.51,3.51,0,0,0,.274.448c.206.269.659.005.458-.263a4.574,4.574,0,0,1-.743-2.256,17.411,17.411,0,0,1,.026-3.515,59.953,59.953,0,0,1,1.723-9.191c.848-3.373,1.839-6.709,2.893-10.024q1.328-4.142,2.793-8.237c.316-.88.632-1.765.959-2.646.148-.4.348-.812.453-1.223a.293.293,0,0,0,.026-.121.266.266,0,0,0-.4-.227l.058-.026.206.026c.053.021.016.005.011,0a1.962,1.962,0,0,0-.121-.169c-.126-.184-.253-.374-.374-.559-.3-.453-.6-.906-.912-1.349-.163-.242-.369-.643-.638-.78a.3.3,0,0,0-.258-.016c-.111.047-.184.19-.047.026.042-.047.074-.011.011-.011a1.54,1.54,0,0,0-.264.047l-.084.011c.084-.011-.037.005-.063.011l-.264.032c-.485.058-.975.105-1.46.153-1.565.153-3.125.274-4.69.385q-3.154.229-6.308.374c-2.356.105-4.706.179-7.062.206-2.308.026-4.622.005-6.93-.1a52.889,52.889,0,0,1-5.918-.553,12.678,12.678,0,0,1-4.021-1.154,2.626,2.626,0,0,1-.97-.8,6.184,6.184,0,0,1-.733-1.918,9.943,9.943,0,0,1-.269-2.435,18.258,18.258,0,0,1,.7-4.553,28.714,28.714,0,0,0,.8-2.951.842.842,0,0,0-.126-.743c-.248-.237-.622.137-.374.374Z" transform="translate(-59.211 -38.586)" fill="#016fc2"/>
        </g>
        <path id="Path_205" data-name="Path 205" d="M85.622,28.755,80.2,29.935s-12.274,4.179-13.8,8.031-4.906,29.249-6.14,32.7-.042,7.636-.311,9.054a98.22,98.22,0,0,0-1.66,13.191S75.7,82.235,78.508,81.771s29.612-1.634,29.612-1.634,6.456-13.3,7.03-15.489-6.1-17.354-8.859-21.438-9-9.175-9-9.175Z" transform="translate(-58.046 -4.099)" fill="#72be8e"/>
        <path id="Path_206" data-name="Path 206" d="M80.746,38.266S74.285,33.138,69.795,35.6s-3.663,7.61-2.661,8.453S76.1,51.636,77.5,50.039,80.746,38.266,80.746,38.266Z" transform="translate(-23.642 22.284)" fill="#f7a98f"/>
        <path id="Path_207" data-name="Path 207" d="M75.552,46.951a1.974,1.974,0,0,1-1.123.8c-.269.026-.511-.169-.79-.153a3.531,3.531,0,0,0-.68.221c-.411.105-.374-.285-.669-.369-.316-.09-.574.3-.943.179-.174-.058-.211-.2-.348-.269-.548-.285-.8-.184-1.107-.785a8.933,8.933,0,0,1-.769-3.684c-.026-.374-.126-.79-.169-1.154-.374.058-.638.7-.833.986a10.727,10.727,0,0,1-1.086,1.486c-.195.2-.617.664-.833.285-.09-.163.069-.617.1-.8a14.751,14.751,0,0,0,.184-2.087,10.724,10.724,0,0,1,.132-2.045,3.787,3.787,0,0,1,.443-1.223c.237-.385.6-.5.9-.806a6.077,6.077,0,0,1,2.925-1.66c1.65-.464,3.478-.733,4.938.374.574.432,1.2.5,1.5,1.223a5.6,5.6,0,0,1,.332,1.765,32,32,0,0,1-.232,3.842A7.343,7.343,0,0,1,75.552,46.951Z" transform="translate(-24.361 24.602)" fill="#f7a98f"/>
        <path id="Path_208" data-name="Path 208" d="M103.023,33.4c-2.751,2.972-14.15,33.006-15,32.642s-25.365-3.6-25.365-3.6l-.248,1.555S85.98,70.265,87.94,70.807s36.468,6.746,37.681,6.255,15.388-30.761,15.52-33.017S103.023,33.4,103.023,33.4Z" transform="translate(-40.454 15.739)" fill="#001c31"/>
        <path id="Path_209" data-name="Path 209" d="M60.35,39.457s12.722-4.111,13.28-3.336,1.323,4.532,1.323,4.532a14.159,14.159,0,0,1,8.569.464c4.964,1.7,20.042,8.437,20.042,8.437l-.105,6.356s-32.853-2.3-37.57-5.555S60.35,39.457,60.35,39.457Z" transform="translate(-49.237 26.937)" fill="#f7a98f"/>
        <g id="Group_93" data-name="Group 93" transform="translate(5.41 39.082)">
          <path id="Path_210" data-name="Path 210" d="M59.269,43.026q.19,2.174.411,4.348c.274,2.682.569,5.365.964,8.037.153,1.022.316,2.05.559,3.057.095.379.227,1.26.7,1.381a1.348,1.348,0,0,0,.574-.069c.321-.069.638-.148.959-.227,1.033-.258,2.071-.532,3.1-.812,2.714-.722,5.428-1.47,8.137-2.219,1.744-.485,3.494-.943,5.228-1.465.379-.111.353-.4.327-.738-.053-.69-.153-1.381-.248-2.066-.327-2.393-.706-4.78-1.08-7.167q-.64-4.024-1.3-8.042c-.274-1.681-.559-3.362-.827-5.043l-.032-.211c-.016-.116,0-.011-.005-.047-.032-.332-.559-.337-.527,0,.111,1.191.379,2.382.574,3.563.406,2.487.817,4.975,1.217,7.462.411,2.572.822,5.138,1.2,7.715q.308,2.087.511,4.184c.011.069-.005.011.005,0-.016.016.111-.179.163-.148l-.132.037-.68.19c-.891.253-1.776.5-2.667.748q-3.921,1.091-7.858,2.161c-2.024.548-4.047,1.128-6.092,1.586-.105.026-.216.053-.327.074l-.111.016c-.011.005.021.032-.021.005l.079.021c.005,0,0,.011-.016-.021a1.41,1.41,0,0,1-.111-.227,12.432,12.432,0,0,1-.553-2.345c-.443-2.545-.727-5.117-1.007-7.684-.206-1.918-.4-3.831-.564-5.75l-.026-.306c-.026-.332-.559-.337-.527,0Z" transform="translate(-59.268 -31.492)" fill="#1d7d5f"/>
        </g>
        <g id="Group_94" data-name="Group 94" transform="translate(23.413 39.717)">
          <path id="Path_211" data-name="Path 211" d="M62.768,31.866c-.026,1.723-.047,3.441-.074,5.159l-.011.743a.264.264,0,0,0,.527,0l.074-5.159.011-.743a.264.264,0,0,0-.527,0Z" transform="translate(-62.684 -31.613)" fill="#1d7d5f"/>
        </g>
        <g id="Group_95" data-name="Group 95" transform="translate(42.381 42.889)">
          <path id="Path_212" data-name="Path 212" d="M67.267,32.543a44.65,44.65,0,0,1,.643,6.319,28.25,28.25,0,0,1-.274,5.212c-.279,1.834-.574,3.657-.891,5.486-.148.87-.3,1.734-.459,2.6l.511.137a16.2,16.2,0,0,1,1.339-4.332,8.34,8.34,0,0,1,1.992-2.825,6.837,6.837,0,0,1,4.242-1.465,4.594,4.594,0,0,1,2.335.469.264.264,0,0,0,.269-.453,4.654,4.654,0,0,0-2.018-.527,7.674,7.674,0,0,0-4.59,1.138c-2,1.307-3.025,3.8-3.652,6.018a15.531,15.531,0,0,0-.427,1.839c-.053.327.448.474.511.137.459-2.477.864-4.964,1.249-7.457a31.1,31.1,0,0,0,.406-5.375,45.718,45.718,0,0,0-.332-4.648c-.095-.806-.2-1.613-.348-2.414-.058-.332-.564-.195-.506.137Z" transform="translate(-66.283 -32.215)" fill="#1d7d5f"/>
        </g>
        <g id="Group_96" data-name="Group 96" transform="translate(51.809 50.586)">
          <path id="Path_213" data-name="Path 213" d="M117.024,42.622l-2.7-.68q-3.391-.854-6.783-1.7-4.411-1.107-8.827-2.192-4.443-1.091-8.891-2.166c-2.324-.553-4.653-1.112-6.988-1.623-.7-.158-1.407-.311-2.119-.443a2.513,2.513,0,0,0-1.043-.116c-.322.1-.527.706-.664.97-.416.806-.812,1.628-1.207,2.451-1.228,2.556-2.419,5.122-3.61,7.694q-1.9,4.1-3.779,8.216L68.2,57.889l-.105.237c-.137.306.316.574.453.264l1.549-3.4q1.763-3.858,3.531-7.7,1.881-4.079,3.794-8.142c.485-1.022.97-2.045,1.47-3.062.29-.59.574-1.191.906-1.755.037-.063.079-.116.111-.174a.616.616,0,0,0-.084.058c-.047.047-.079-.005-.016.005a.4.4,0,0,0,.079.005l.09.011a.573.573,0,0,1,.069.005c.553.084,1.107.2,1.655.316,2.092.443,4.179.938,6.266,1.433q4.292,1.02,8.585,2.076,4.474,1.1,8.954,2.213,3.684.917,7.367,1.844l3.837.964.169.047a.266.266,0,0,0,.142-.511Z" transform="translate(-68.072 -33.675)" fill="#fbfbfb"/>
        </g>
        <path id="Path_214" data-name="Path 214" d="M68.857,42.591a11.6,11.6,0,0,1,.722-1.449c1.26-2.119,2.962-2.256,5.249-2.646.848-.142,3.257-1.075,3.731-.248.643,1.107-1.481,2.145-2.234,2.561,1.122.153,7.779.269,5.37,2.73.812.843.011,1.982-1.017,2.087A1.326,1.326,0,0,1,80,47.191c1.1,3.2-6.688,1.676-8.042,1.576C68.15,48.493,67.681,45.515,68.857,42.591Z" transform="translate(-15.341 34.992)" fill="#f7a98f"/>
        <g id="Group_97" data-name="Group 97" transform="translate(60.178 77.848)">
          <path id="Path_215" data-name="Path 215" d="M70.2,39.442c1.112-.068,2.229-.084,3.341-.042a14.393,14.393,0,0,1,1.581.105c.406.063.875.258.759.759-.237,1.054-1.787.822-2.567.806-1.133-.026-2.266-.047-3.4-.074a.264.264,0,0,0,0,.527l3.162.069c.864.016,1.982.195,2.735-.348a1.267,1.267,0,0,0,.364-1.808c-.532-.6-1.613-.516-2.335-.553a33.581,33.581,0,0,0-3.642.032c-.337.016-.343.543,0,.527Z" transform="translate(-69.66 -38.848)" fill="#7c4415"/>
        </g>
        <g id="Group_98" data-name="Group 98" transform="translate(59.892 80.147)">
          <path id="Path_216" data-name="Path 216" d="M69.859,41.468c.727.053,1.455.084,2.182.1.574.011,1.159.058,1.734.037a1.67,1.67,0,0,0,1.3-.538,1.461,1.461,0,0,0,.069-1.655c-.163-.3-.622-.026-.453.269a.888.888,0,0,1-.258,1.249,2.256,2.256,0,0,1-1.212.137c-1.117-.063-2.24-.047-3.362-.126-.337-.026-.337.5,0,.527Z" transform="translate(-69.606 -39.285)" fill="#7c4415"/>
        </g>
        <g id="Group_99" data-name="Group 99" transform="translate(56.938 75.499)">
          <path id="Path_217" data-name="Path 217" d="M69.3,39.158a37.764,37.764,0,0,1,4.564-.227.264.264,0,0,0,0-.527,37.767,37.767,0,0,0-4.564.227c-.332.037-.337.564,0,.527Z" transform="translate(-69.045 -38.403)" fill="#7c4415"/>
        </g>
        <g id="Group_110" data-name="Group 110" transform="translate(22.407)">
          <g id="Group_100" data-name="Group 100" transform="translate(11.787 31.911)">
            <path id="Path_218" data-name="Path 218" d="M65.042,30.46c.258,1.344.416,2.709.548,4.074a48.975,48.975,0,0,1,.126,8.964,27.621,27.621,0,0,1-.975,5.476.265.265,0,0,0,.511.137,33.609,33.609,0,0,0,1.133-9.834,57.346,57.346,0,0,0-.606-7.541c-.069-.469-.142-.943-.232-1.412-.063-.332-.574-.195-.506.137Z" transform="translate(-64.73 -30.132)" fill="#1d7d5f"/>
          </g>
          <path id="Path_219" data-name="Path 219" d="M68.03,25.112c-2.64.8-3.921,4.358-4.369,6.535s.917,13.823,1.36,14.092,17.444-6.4,18.092-6.782,3.241-4.364,2.935-7.346S80.251,21.4,68.03,25.112Z" transform="translate(-57.881 -24.077)" fill="#7c4415"/>
          <path id="Path_220" data-name="Path 220" d="M69.976,27.9s-6.951,4.943-7.341,5.565-.021,3.81,1.876,7.826,6.182,6.561,6.8,6.366,3.615-5.481,3.995-5.423,2.124,4.448,2.646,4.237,2.7-6.508,2.588-7.014-4.432-5.887-4.132-5.939S69.976,27.9,69.976,27.9Z" transform="translate(-62.493 -7.746)" fill="#1d7d5f"/>
          <path id="Path_221" data-name="Path 221" d="M67.776,27.183s-3.22,7.3-4.321,8.685,5.57,9.786,8.1,8.627.785-3.684.954-4.147,1.207-5.086,1.207-5.086Z" transform="translate(-58.907 -10.812)" fill="#f7a98f"/>
          <path id="Path_222" data-name="Path 222" d="M70.646,26.154a10.027,10.027,0,0,0-1.85,3.61c-.216.748-.6,1.275-.959,1.117s-.227-2.867-2.2-3.378-2.219,2.282-1.7,4.516,2,1.623,2.1,2.008c.453,1.739.933,5.317,1.444,6.377S72.9,45.079,74.4,44.831s5.46-2.35,6.772-8.1,2.514-8.4,1.681-9.307-2.108.343-5.107-.427S71.437,25.5,70.646,26.154Z" transform="translate(-57.314 -16.302)" fill="#f7a98f"/>
          <g id="Group_101" data-name="Group 101" transform="translate(8.28 15.863)">
            <path id="Path_223" data-name="Path 223" d="M64.074,27.416a8.529,8.529,0,0,1,.179,1.9A12.022,12.022,0,0,0,64.416,31c.1.627.242,1.249.374,1.871a16.023,16.023,0,0,0,.353,1.644,5.716,5.716,0,0,0,1.9,2.419,14.656,14.656,0,0,0,2.693,1.839c.3.158.564-.3.264-.453a14.475,14.475,0,0,1-2.672-1.834,4.9,4.9,0,0,1-1.765-2.445c-.258-1.086-.485-2.2-.659-3.3-.179-1.149-.032-2.335-.321-3.468-.079-.327-.59-.19-.506.142Z" transform="translate(-64.064 -27.087)" fill="#7c4415"/>
          </g>
          <g id="Group_102" data-name="Group 102" transform="translate(18.924 20.397)">
            <path id="Path_224" data-name="Path 224" d="M66.348,29.686a1.7,1.7,0,0,0,1.618-1.476.264.264,0,0,0-.264-.264.271.271,0,0,0-.263.264c.011-.074,0-.011,0,.005l-.016.053-.032.121-.021.053-.011.026c.016-.032.016-.037.011-.021l-.053.1-.063.105-.032.047c-.032.047.032-.037-.005.005-.053.058-.105.116-.158.169l-.047.037-.021.016c-.016.011-.011.011.016-.011l-.095.063a.661.661,0,0,1-.2.105c.069-.021.011,0-.005.005l-.053.016-.111.032-.063.011-.032.005c.037-.005.047-.005.026,0l-.126.005a.271.271,0,0,0-.264.264.264.264,0,0,0,.264.264Z" transform="translate(-66.084 -27.947)" fill="#7c4415"/>
          </g>
          <g id="Group_103" data-name="Group 103" transform="translate(9.381 2.927)">
            <path id="Path_225" data-name="Path 225" d="M64.393,24.817a5.486,5.486,0,0,0,.632,3.689,7.89,7.89,0,0,0,2.34,2.825c.274.2.538-.253.269-.458a7.251,7.251,0,0,1-2.108-2.545,4.993,4.993,0,0,1-.627-3.368.263.263,0,0,0-.506-.142Z" transform="translate(-64.273 -24.632)" fill="#5d3310"/>
          </g>
          <g id="Group_104" data-name="Group 104" transform="translate(8.339 3.198)">
            <path id="Path_226" data-name="Path 226" d="M64.13,24.877a3.936,3.936,0,0,0,.653,2.92.27.27,0,0,0,.358.095.266.266,0,0,0,.095-.364,3.411,3.411,0,0,1-.6-2.514.27.27,0,0,0-.184-.321.267.267,0,0,0-.327.184Z" transform="translate(-64.076 -24.683)" fill="#5d3310"/>
          </g>
          <g id="Group_105" data-name="Group 105" transform="translate(22.663 7.88)">
            <path id="Path_227" data-name="Path 227" d="M67.049,28.962a6.736,6.736,0,0,0,5.091-3c.184-.285-.269-.548-.453-.264a6.191,6.191,0,0,1-4.638,2.74c-.337.026-.343.553,0,.527Z" transform="translate(-66.794 -25.572)" fill="#5d3310"/>
          </g>
          <path id="Path_228" data-name="Path 228" d="M65.412,28.3s3.062,1.813,4.964,1.739a2.508,2.508,0,0,1-3.2,1.186C66.16,30.831,65.517,28.976,65.412,28.3Z" transform="translate(-50.03 -6.059)" fill="#fff"/>
          <g id="Group_106" data-name="Group 106" transform="translate(14.717 14.242)">
            <path id="Path_229" data-name="Path 229" d="M65.6,27.554a3.467,3.467,0,0,1,3.536.585c.253.227.627-.148.369-.369a3.99,3.99,0,0,0-4.047-.727c-.311.126-.174.638.142.511Z" transform="translate(-65.286 -26.779)" fill="#001c31"/>
          </g>
          <g id="Group_107" data-name="Group 107" transform="translate(22.499 16.335)">
            <path id="Path_230" data-name="Path 230" d="M67.156,27.807a1.365,1.365,0,0,1,1.349.163l.021.016h0l.053.042.095.095a.82.82,0,0,1,.142.179c.174.29.632.026.453-.263a1.878,1.878,0,0,0-2.377-.685.26.26,0,0,0-.095.358.265.265,0,0,0,.358.095Z" transform="translate(-66.762 -27.176)" fill="#001c31"/>
          </g>
          <g id="Group_108" data-name="Group 108" transform="translate(15.864 11.714)">
            <path id="Path_231" data-name="Path 231" d="M65.833,26.867a3.451,3.451,0,0,1,3.283,1.281.272.272,0,0,0,.364.095.266.266,0,0,0,.095-.358A4,4,0,0,0,65.7,26.361c-.337.058-.2.564.137.506Z" transform="translate(-65.503 -26.299)" fill="#001c31"/>
          </g>
          <g id="Group_109" data-name="Group 109" transform="translate(23.415 13.727)">
            <path id="Path_232" data-name="Path 232" d="M67.33,27.318a1.3,1.3,0,0,1,.917-.058,1.444,1.444,0,0,1,.432.216l.021.016h0l.053.042.095.095a1.009,1.009,0,0,1,.142.184c.174.285.632.021.453-.269a1.878,1.878,0,0,0-2.377-.685.266.266,0,0,0-.095.364.275.275,0,0,0,.358.095Z" transform="translate(-66.936 -26.681)" fill="#001c31"/>
          </g>
          <path id="Path_233" data-name="Path 233" d="M67.914,28.259a1.219,1.219,0,1,1-1.012-1.4A1.221,1.221,0,0,1,67.914,28.259Z" transform="translate(-49.701 -12.251)" fill="#001c31"/>
          <path id="Path_234" data-name="Path 234" d="M69.138,28.639a1.219,1.219,0,1,1-1.012-1.4A1.221,1.221,0,0,1,69.138,28.639Z" transform="translate(-44.47 -10.629)" fill="#001c31"/>
        </g>
        <g id="Group_111" data-name="Group 111" transform="translate(41.468 61.109)">
          <path id="Path_235" data-name="Path 235" d="M69,35.7a4.053,4.053,0,0,0-1.765,1.729,8.467,8.467,0,0,0-.69,2.862l-.216,1.623A14.6,14.6,0,0,0,66.11,43.5a.508.508,0,0,0,.553.548,1.508,1.508,0,0,0,.906-.6,14.478,14.478,0,0,0,1.855-2.682l-.49-.132a23.109,23.109,0,0,0,.448,3.657,10.07,10.07,0,0,0,.443,1.755.866.866,0,0,0,1.007.622c.448-.148.622-.727.7-1.138a15.639,15.639,0,0,0,.174-1.787c.095-1.3.142-2.609.153-3.916a.264.264,0,0,0-.527,0c-.011,1.028-.037,2.055-.1,3.083-.026.511-.063,1.022-.105,1.539a3.816,3.816,0,0,1-.29,1.518c-.364.664-.648-.538-.711-.785-.121-.485-.232-.97-.321-1.46a23.352,23.352,0,0,1-.343-3.088.265.265,0,0,0-.49-.132,14.3,14.3,0,0,1-1.7,2.487,2.494,2.494,0,0,1-.48.464.414.414,0,0,1-.163.069l.016-.1a1.786,1.786,0,0,1,.063-.464l.216-1.618a16.91,16.91,0,0,1,.538-3.13,3.626,3.626,0,0,1,1.8-2.055c.3-.153.037-.606-.269-.453Z" transform="translate(-66.11 -35.672)" fill="#7c4415"/>
        </g>
        <g id="Group_112" data-name="Group 112" transform="translate(46.107 65.221)">
          <path id="Path_236" data-name="Path 236" d="M67.031,43.185a1.131,1.131,0,0,0,1.423.4,2.571,2.571,0,0,0,1.186-1.686,13.713,13.713,0,0,0,.464-2.445c.121-.917.242-1.829.364-2.746.042-.337-.485-.332-.527,0-.184,1.37-.311,2.761-.574,4.121a5.289,5.289,0,0,1-.6,1.776c-.242.385-.933.88-1.281.316-.179-.285-.632-.021-.453.269Z" transform="translate(-66.99 -36.452)" fill="#7c4415"/>
        </g>
        <g id="Group_113" data-name="Group 113" transform="translate(47.501 66.01)">
          <path id="Path_237" data-name="Path 237" d="M67.272,42.562a1.242,1.242,0,0,0,1.6.69,3.2,3.2,0,0,0,1.639-1.365,6.845,6.845,0,0,0,.875-2.24c.216-.906.4-1.813.6-2.719.074-.327-.437-.469-.506-.137-.158.722-.316,1.444-.48,2.166a10.612,10.612,0,0,1-.569,1.976,3.867,3.867,0,0,1-1,1.407c-.39.327-1.375.817-1.644.079-.116-.311-.627-.179-.511.142Z" transform="translate(-67.255 -36.602)" fill="#7c4415"/>
        </g>
        <g id="Group_114" data-name="Group 114" transform="translate(48.674 59.857)">
          <path id="Path_238" data-name="Path 238" d="M68.118,48.064c1.043.511,2.066-.321,2.624-1.159a10.51,10.51,0,0,0,1.318-3.573,12.953,12.953,0,0,0,.269-4.005,4.261,4.261,0,0,0-4.6-3.873c-.332.032-.337.559,0,.527a3.766,3.766,0,0,1,3.995,2.872,10.037,10.037,0,0,1-.021,3.5,13.913,13.913,0,0,1-.885,3.246,4.723,4.723,0,0,1-.917,1.523,1.382,1.382,0,0,1-1.512.48c-.306-.148-.574.306-.269.458Z" transform="translate(-67.477 -35.435)" fill="#7c4415"/>
        </g>
        <g id="Group_115" data-name="Group 115" transform="translate(43.161 57.983)">
          <path id="Path_239" data-name="Path 239" d="M66.941,39.359a4.528,4.528,0,0,1,3.61-3.61,8.132,8.132,0,0,1,5.792,1.212.264.264,0,0,0,.269-.453A8.643,8.643,0,0,0,70.3,35.264a5.013,5.013,0,0,0-3.868,3.952c-.053.332.458.474.506.142Z" transform="translate(-66.431 -35.079)" fill="#7c4415"/>
        </g>
      </g>
      <g id="Group_142" data-name="Group 142" transform="translate(0 153.537)">
        <path id="Path_240" data-name="Path 240" d="M18.047,79.6S8.16,90.159,8.387,91.956l.227,1.8s9.433,1.349,12.579-2.925a35.355,35.355,0,0,0,4.722-9.66V91.5h1.344s3.6-14.83,2.472-17.075S18.047,79.6,18.047,79.6Z" transform="translate(23.254 72.127)" fill="#001c31"/>
        <path id="Path_241" data-name="Path 241" d="M9.322,96.78s4.5.221,6.967-3.146,6.74-8.991,9.433-8.764c0,0-1.344-1.8-1.344-2.7s2.693-9.66,2.693-9.66-8.764-1.576-9.212-.675-3.146,14.155-4.042,17.075S9.322,96.78,9.322,96.78Z" transform="translate(27.262 61.685)" fill="#f7a98f"/>
        <path id="Path_242" data-name="Path 242" d="M64.1,81.358a1.669,1.669,0,0,1-.279.306c-4.163,3.668-32.073,2.393-32.073,2.393s.116.875.169,2.783c.053,1.823.047,4.6-.169,8.453-.448,7.863-7.188,30.334-7.188,30.334-6.292,3.594-14.382.221-14.382.221s.859-13.07,2.34-25.9c1.138-9.86,2.64-19.568,4.4-23.088.453-.9,7.631-4.949,14.735-8.732,7-3.731,13.918-7.22,14.25-7.22C46.575,60.91,67.022,77.316,64.1,81.358Z" transform="translate(30.905 16.213)" fill="#001c31"/>
        <path id="Path_243" data-name="Path 243" d="M29.849,78.206s.116.875.169,2.783a8.028,8.028,0,0,0-3.989,3.731c-4.042,7.188-15.283,9.887-15.283,9.887l-.126-.506c1.138-9.86,2.64-19.568,4.4-23.088.453-.9,7.631-4.949,14.735-8.732A296.052,296.052,0,0,1,61.922,75.813C57.759,79.481,29.849,78.206,29.849,78.206Z" transform="translate(32.801 22.062)" fill="#00131e"/>
        <path id="Path_244" data-name="Path 244" d="M17.5,69.956S3.734,74.388,3.055,76.064L2.38,77.745S9.974,83.505,14.8,81.3a35.166,35.166,0,0,0,8.817-6.155L18.6,84.185l1.18.654s10.34-11.22,10.45-13.728S17.5,69.956,17.5,69.956Z" transform="translate(-2.38 53.279)" fill="#001c31"/>
        <path id="Path_245" data-name="Path 245" d="M3.846,84.684s3.821,2.377,7.615.632,10.255-4.585,12.506-3.078c0,0-.306-2.224.132-3.014s7.046-7.136,7.046-7.136-6.893-5.628-7.726-5.065S13.8,77.875,11.593,79.994,3.846,84.684,3.846,84.684Z" transform="translate(3.88 42.151)" fill="#f7a98f"/>
        <path id="Path_246" data-name="Path 246" d="M37.367,61.424C35.169,64.349,6.806,98.5,6.806,99.394s4.722,7.868,8.764,7.868c0,0,22.245-17.08,25.391-21.8s3.146-6.74,3.146-6.74,20.448,6.74,23.146,7.415,11.23.448,12.358-.448-.227-18.651-2.472-21.575S39.39,58.726,37.367,61.424Z" transform="translate(16.519 13.454)" fill="#001c31"/>
        <path id="Path_250" data-name="Path 250" d="M33.338,52.805s-8.6,2.53-10.788,4.553-9.433,9.6-9.433,9.6S20.026,93.59,20.7,93.59s12.469.506,18.2,4.042,12.132,8.764,13.312,8.427-2.018-8.933-1.85-10.788.922-36.864,0-38.25c-1.349-2.024-9.944-4.553-9.944-4.553Z" transform="translate(43.467 -19.835)" fill="#713a8e"/>
        <path id="Path_251" data-name="Path 251" d="M15.077,59.876,25.7,58.864s1.855,5.729,1.012,9.265c0,0-11.968-1.007-11.8-1.681S15.077,59.876,15.077,59.876Z" transform="translate(51.109 7.476)" fill="#f7a98f"/>
        <path id="Path_252" data-name="Path 252" d="M32.768,53.352C29.4,54.528,26.7,57.732,25.691,63.966c-.39,2.382,2.524,19.214,1.518,18.2s-9.607-.506-10.113.675.169,8.759,1.012,9.265,11.457,1.349,13.987.506,4.211-1.175,4.885-11.626a150.438,150.438,0,0,0-1.012-24.437C35.293,54.359,34.265,52.825,32.768,53.352Z" transform="translate(59.71 -16.503)" fill="#713a8e"/>
        <path id="Path_253" data-name="Path 253" d="M21.076,53.683s.843,5.4.169,6.234S17.371,63.29,17.034,67,20.4,82,20.4,82s-6.066-2.53-6.572-7.252S14,64.471,15.179,62.784,21.076,53.683,21.076,53.683Z" transform="translate(45.785 -14.647)" fill="#491868"/>
        <g id="Group_120" data-name="Group 120" transform="translate(62.495 38.787)">
          <path id="Path_254" data-name="Path 254" d="M18.34,53.885a47.668,47.668,0,0,1,.49,5.186c0,.158,0,.316-.016.474.005-.053-.032.111-.011.058.005-.011.021-.021-.032.032-.274.3-.559.59-.838.891A17.532,17.532,0,0,0,15.3,64.1a7.68,7.68,0,0,0-1.059,4.248,20.1,20.1,0,0,0,.611,4.232c.306,1.275.727,2.519,1.091,3.779l1.528,5.365.037.126a.266.266,0,0,0,.511-.142c-.458-1.6-.917-3.2-1.37-4.8-.337-1.175-.717-2.335-1.038-3.51-.733-2.656-1.381-5.7-.211-8.321a15.239,15.239,0,0,1,2.63-3.873c.321-.358.653-.7.98-1.049a1.015,1.015,0,0,0,.337-.627,15.146,15.146,0,0,0-.158-2.8c-.09-.891-.19-1.787-.3-2.677l-.021-.163c-.042-.332-.569-.332-.527,0Z" transform="translate(-14.239 -53.636)" fill="#fff"/>
        </g>
        <g id="Group_121" data-name="Group 121" transform="translate(68.011 57.481)">
          <path id="Path_255" data-name="Path 255" d="M15.61,58.321a16.53,16.53,0,0,1,10.493.538c.316.126.453-.385.142-.506a17.005,17.005,0,0,0-10.777-.543.266.266,0,0,0,.142.511Z" transform="translate(-15.285 -57.183)" fill="#fff"/>
        </g>
        <g id="Group_122" data-name="Group 122" transform="translate(85.099 47.89)">
          <path id="Path_256" data-name="Path 256" d="M18.529,55.616q.182,1.763.353,3.536l.722,7.22.585,5.808c.026.269-.021.843.216,1.028.258.206.564.369.838.553a18.4,18.4,0,0,1,1.576,1.212,4.738,4.738,0,0,1,1.212,1.4c.032.069.126.464.09.448l.074-.063c.011-.021.032.021.016,0a1.074,1.074,0,0,0-.19-.084,5.9,5.9,0,0,1-1.133-.98c-.321-.327-.638-.664-.943-1.012l-.158-.184c-.221-.258-.6.116-.374.374.343.4.7.78,1.065,1.154a9.542,9.542,0,0,0,.864.8,1.98,1.98,0,0,0,.743.443c.806.174.543-.928.327-1.3a7.641,7.641,0,0,0-2.029-2.024,20.34,20.34,0,0,0-1.718-1.191l.132.232Q20.5,70.04,20.2,67.1l-.933-9.338c-.074-.711-.142-1.428-.216-2.145-.032-.337-.559-.337-.527,0Z" transform="translate(-18.528 -55.363)" fill="#fff"/>
        </g>
        <g id="Group_123" data-name="Group 123" transform="translate(76.534 64.676)">
          <path id="Path_257" data-name="Path 257" d="M17.358,60.4a5.206,5.206,0,0,1,2.661-1.254,11.792,11.792,0,0,1,3.046.032c.975.079,1.95.179,2.925.29.5.053.985.111,1.481.174.337.047.332-.48,0-.527q-2.1-.269-4.221-.448c-1.781-.158-3.578-.29-5.207.6a5.578,5.578,0,0,0-1.059.764c-.248.232.126.6.374.374Z" transform="translate(-16.903 -58.548)" fill="#fff"/>
        </g>
        <path id="Path_258" data-name="Path 258" d="M17.226,53.866c-1.249-1.159-.126-3.652.7-4.711,1.455-1.887,4.917-3.457,7.273-2.672,3.7,1.228,3.873,5.681,2.672,8.848-.943,2.477-3.9,4.316-6.387,2.793a15.734,15.734,0,0,1-3.188-2.788C17.869,54.857,17.711,54.124,17.226,53.866Z" transform="translate(58.63 -46.276)" fill="#001c31"/>
        <path id="Path_259" data-name="Path 259" d="M16.666,61.425s-2.155-3.009-2.219-5.792,3.093-5.46,7.209-7.562S34,50.485,34.415,51.6s2.05,5.223,2.192,6.972-.432,5.507-2.155,7.278-2.883,2.588-2.92,3.22-14.709-7.383-14.709-7.383Z" transform="translate(49.141 -40.971)" fill="#001c31"/>
        <path id="Path_260" data-name="Path 260" d="M17.182,57.743s.675,4.722.358,5.144A13.467,13.467,0,0,0,16.054,68.3c.053,1.95.943,9.2,1.924,9.212s1.908-6.145,4.754-9.418,5.017-4.938,5.428-5.75-2.361-.717-3.22-3.531-1.792-8.327-1.792-8.327Z" transform="translate(56.002 -28.298)" fill="#f7a98f"/>
        <path id="Path_261" data-name="Path 261" d="M49.3,85.269l-40.294,2.5a.424.424,0,0,1-.469-.364l-2.4-30.55a.416.416,0,0,1,.411-.422l40.294-2.5a.43.43,0,0,1,.474.364l2.4,30.55A.416.416,0,0,1,49.3,85.269Z" transform="translate(13.645 -13.58)" fill="#001c31"/>
        <path id="Path_262" data-name="Path 262" d="M6.21,63.305c-.437-1.375.169-1.85.148-3.178-.026-1.423-.269-3.067.053-3.262s1,.111,1.228.569a5.049,5.049,0,0,1,.269,1.613c.032.337.063.68.09,1.017a4.819,4.819,0,0,1,.116.748c.274-.074.559-.427.812-.59.364-.237.759-.416,1.144-.617a13.27,13.27,0,0,1,1.845-.8,1.8,1.8,0,0,1,1.339-.095c.253.142.379.48.574.7.4.448.306.664.327,1.228,0-.032.3.163.321.179a1.271,1.271,0,0,1,.285.453.723.723,0,0,1-.153.864c-.179.211-.358.432-.538.648l-2.013,2.424-.316.379s2.9-3.094,3.12-2.867.812.3.358,1.455-5.76,7.02-6.53,6.356S6.236,63.405,6.21,63.305Z" transform="translate(13.294 -1.323)" fill="#f7a98f"/>
        <path id="Path_263" data-name="Path 263" d="M23.013,64.333S21.248,59.7,19.224,58.6,14.081,57.419,14,58.43c0,0-.163.506.169.59a10.055,10.055,0,0,1,3.12,1.265c2.277,1.18,2.361,1.686,2.361,1.686s-5.059-3.12-5.813-2.53-.253,1.18-.253,1.18a1.594,1.594,0,0,0-.253,1.433c.253.843,3.115,2.192,4.3,3.2s-3.541-2.018-4.126-1.681-.675.675-.084,1.18,3.873,3.62,4.8,4.632a9.221,9.221,0,0,0,4.717,2.108C24.194,71.579,25.206,65.508,23.013,64.333Z" transform="translate(43.004 2.598)" fill="#f7a98f"/>
        <path id="Path_264" data-name="Path 264" d="M15.213,50.779c.348-1.275.6.912,3.009.88s5.238-2.988,5.771-2.761a2.557,2.557,0,0,1,1.1,1.618c.195.643.917,4.78,1.755,4.448s1.955-4.653,3-1.7-.216,4.005-1.249,4.711a3.557,3.557,0,0,1-1.012.553s1.2,3.1-.1,4.738-4.132,4.369-5.966,4.221S17.4,65.7,16.282,61.752,14.3,54.173,15.213,50.779Z" transform="translate(50.773 -35.131)" fill="#f7a98f"/>
        <path id="Path_265" data-name="Path 265" d="M15.5,52.031s1.5.327,4.506-.817a2.3,2.3,0,0,1-1.992,2.941C16.36,54.36,15.5,52.031,15.5,52.031Z" transform="translate(53.647 -25.189)" fill="#fff"/>
        <g id="Group_124" data-name="Group 124" transform="translate(73.991 22.062)">
          <path id="Path_266" data-name="Path 266" d="M16.8,60.549c1.476-1.022,3.041-2.05,3.779-3.763.8-1.881.49-4.09.437-6.071a.264.264,0,0,0-.527,0c.026,1.012.095,2.018.079,3.025A7.443,7.443,0,0,1,20.13,56.5c-.669,1.644-2.192,2.624-3.594,3.589-.274.195-.011.648.269.458Z" transform="translate(-16.42 -50.462)" fill="#7c4415"/>
        </g>
        <g id="Group_125" data-name="Group 125" transform="translate(68.975 24.104)">
          <path id="Path_267" data-name="Path 267" d="M15.514,51.041a1.323,1.323,0,0,0,.664,1.512.27.27,0,0,0,.358-.095.265.265,0,0,0-.095-.364,1,1,0,0,1-.142-.084c-.047-.032.047.042.005,0l-.032-.026-.063-.058-.053-.058c-.021-.026.032.042.005.005l-.021-.032c-.032-.053-.058-.1-.084-.153s.016.037.005.011l-.016-.042-.026-.079L16,51.5c0-.005-.011-.063-.005-.016s0-.005,0-.016a.9.9,0,0,1,0-.169c0-.032.016-.037-.005.011L16,51.268l.021-.084a.265.265,0,0,0-.511-.142Z" transform="translate(-15.468 -50.85)" fill="#7c4415"/>
        </g>
        <g id="Group_126" data-name="Group 126" transform="translate(75.168 6.32)">
          <path id="Path_268" data-name="Path 268" d="M16.836,47.992A13.427,13.427,0,0,1,21.68,49.92c.69.453,1.365.933,2.034,1.418a5.69,5.69,0,0,1,1.665,1.681.264.264,0,0,0,.453-.269,5.845,5.845,0,0,0-1.6-1.681c-.711-.538-1.449-1.049-2.192-1.539a14.012,14.012,0,0,0-5.07-2.05c-.332-.063-.474.443-.137.511Z" transform="translate(-16.643 -47.475)" fill="#fff"/>
        </g>
        <g id="Group_127" data-name="Group 127" transform="translate(76.135 0.899)">
          <path id="Path_269" data-name="Path 269" d="M17.307,52.336a9.387,9.387,0,0,1,3.51-3.963c1.56-.991,3.726-1.918,5.544-1.1.306.142.574-.316.269-.453-1.955-.88-4.19-.058-5.908,1a9.875,9.875,0,0,0-3.868,4.258c-.142.306.311.574.453.264Z" transform="translate(-16.827 -46.446)" fill="#fff"/>
        </g>
        <g id="Group_128" data-name="Group 128" transform="translate(77.254 1.53)">
          <path id="Path_270" data-name="Path 270" d="M17.523,52.3a8.59,8.59,0,0,1,3.42-3.215c.775-.485,1.57-.954,2.387-1.37a4.283,4.283,0,0,1,2.6-.6c.332.053.474-.453.137-.511a4.474,4.474,0,0,0-2.63.469,24.252,24.252,0,0,0-2.656,1.486,9.279,9.279,0,0,0-3.715,3.468c-.153.306.3.569.453.269Z" transform="translate(-17.039 -46.566)" fill="#fff"/>
        </g>
        <g id="Group_129" data-name="Group 129" transform="translate(80.429 6.358)">
          <path id="Path_271" data-name="Path 271" d="M18.076,50.085a6.386,6.386,0,0,1,1.781-1.491,4.892,4.892,0,0,1,1.028-.469,1.327,1.327,0,0,1,1.07-.005c.727.432.358,1.433.011,1.982a3.915,3.915,0,0,1-1.549,1.523c-.306.137-.037.6.269.453a4.089,4.089,0,0,0,1.5-1.375,2.778,2.778,0,0,0,.7-2.008A1.383,1.383,0,0,0,21.6,47.486a3.762,3.762,0,0,0-2.013.653,6.754,6.754,0,0,0-1.881,1.57c-.216.264.158.638.369.374Z" transform="translate(-17.642 -47.482)" fill="#fff"/>
        </g>
        <g id="Group_130" data-name="Group 130" transform="translate(74.4 8.301)">
          <path id="Path_272" data-name="Path 272" d="M17.011,53.285a6.966,6.966,0,0,1,1.9-3.494c.922-.912,2.4-1.834,3.731-1.238.306.137.574-.316.264-.458-1.47-.659-3.062.121-4.163,1.128a7.461,7.461,0,0,0-2.24,3.926c-.074.327.437.469.506.137Z" transform="translate(-16.498 -47.851)" fill="#fff"/>
        </g>
        <g id="Group_131" data-name="Group 131" transform="translate(65.23 6.383)">
          <path id="Path_273" data-name="Path 273" d="M15.719,56.088a2.657,2.657,0,0,1-.095-2.783,7.73,7.73,0,0,1,1.813-2.219,11.993,11.993,0,0,1,4.891-2.656,11.669,11.669,0,0,1,3.167-.416.264.264,0,0,0,0-.527,12.54,12.54,0,0,0-8.511,3.3,7.589,7.589,0,0,0-1.929,2.509,3.088,3.088,0,0,0,.3,3.162c.206.269.58-.105.369-.369Z" transform="translate(-14.758 -47.487)" fill="#fff"/>
        </g>
        <g id="Group_132" data-name="Group 132" transform="translate(71.185 19.31)">
          <path id="Path_274" data-name="Path 274" d="M16.327,51.253a2.4,2.4,0,0,1,2.867-.527c.3.158.569-.3.269-.453a2.927,2.927,0,0,0-3.5.606c-.227.253.148.627.369.374Z" transform="translate(-15.888 -49.94)" fill="#001c31"/>
        </g>
        <g id="Group_133" data-name="Group 133" transform="translate(71.003 16.78)">
          <path id="Path_275" data-name="Path 275" d="M16.3,50.852a2.738,2.738,0,0,1,2.962-.685.263.263,0,1,0,.142-.506,3.255,3.255,0,0,0-3.478.817c-.232.253.142.627.374.374Z" transform="translate(-15.853 -49.46)" fill="#001c31"/>
        </g>
        <g id="Group_134" data-name="Group 134" transform="translate(66.035 20.502)">
          <path id="Path_276" data-name="Path 276" d="M15.356,51a1.137,1.137,0,0,1,.174-.126,1.3,1.3,0,0,1,.195-.095,1.312,1.312,0,0,1,.458-.09,1.173,1.173,0,0,1,.448.069,1.217,1.217,0,0,1,.39.211.269.269,0,0,0,.369,0,.266.266,0,0,0,0-.374,1.846,1.846,0,0,0-2.4.037.261.261,0,0,0,.369.369Z" transform="translate(-14.91 -50.166)" fill="#001c31"/>
        </g>
        <g id="Group_135" data-name="Group 135" transform="translate(65.821 17.988)">
          <path id="Path_277" data-name="Path 277" d="M15.319,50.538a.892.892,0,0,1,.7-.321,2.6,2.6,0,0,1,.485.084l.553.126a.269.269,0,0,0,.327-.184.266.266,0,0,0-.184-.321l-.611-.142a2.669,2.669,0,0,0-.648-.09,1.4,1.4,0,0,0-1,.48.263.263,0,0,0,.374.369Z" transform="translate(-14.87 -49.689)" fill="#001c31"/>
        </g>
        <path id="Path_278" data-name="Path 278" d="M17.9,50.682a.936.936,0,1,1-1.165-.622A.936.936,0,0,1,17.9,50.682Z" transform="translate(56.061 -30.296)" fill="#001c31"/>
        <path id="Path_279" data-name="Path 279" d="M16.854,50.866a.936.936,0,0,1-1.792.543.936.936,0,1,1,1.792-.543Z" transform="translate(51.604 -29.521)" fill="#001c31"/>
        <g id="Group_136" data-name="Group 136" transform="translate(77.554 75.196)">
          <path id="Path_280" data-name="Path 280" d="M17.285,61.211c1.765.258,3.541.464,5.312.632,1.512.142,3.025.253,4.537.3a24.264,24.264,0,0,0,4.058-.132c.822-.111,2.061-.279,2.429-1.154.132-.311-.379-.448-.511-.142a.752.752,0,0,1-.211.237,1.751,1.751,0,0,1-.374.206,5.673,5.673,0,0,1-1.318.327,22.273,22.273,0,0,1-3.842.137c-2.725-.069-5.449-.343-8.153-.68-.606-.079-1.186-.153-1.787-.242-.332-.047-.474.458-.142.511Z" transform="translate(-17.096 -60.544)" fill="#fff"/>
        </g>
        <g id="Group_137" data-name="Group 137" transform="translate(65.547 66.199)">
          <path id="Path_281" data-name="Path 281" d="M14.829,59.162c.211.722.532,1.407.764,2.119a3.14,3.14,0,0,1-.321,1.908c-.105.321.406.458.511.142a3.843,3.843,0,0,0,.353-2.061,8.654,8.654,0,0,0-.39-1.07c-.148-.39-.29-.78-.406-1.18a.266.266,0,0,0-.511.142Z" transform="translate(-14.818 -58.837)" fill="#7c4415"/>
        </g>
        <g id="Group_138" data-name="Group 138" transform="translate(56.024 63.039)">
          <path id="Path_282" data-name="Path 282" d="M13.555,59.13c-.095-.29.279-.379.49-.358a3.692,3.692,0,0,1,.785.216,11.116,11.116,0,0,1,1.66.685,5.554,5.554,0,0,1,2.34,2.15c.169.3.622.026.458-.269A6.47,6.47,0,0,0,16.1,58.909c-.337-.148-.68-.274-1.028-.4a4.235,4.235,0,0,0-1.043-.274c-.559-.037-1.18.416-.98,1.033.1.321.611.179.506-.142Z" transform="translate(-13.011 -58.238)" fill="#7c4415"/>
        </g>
        <g id="Group_139" data-name="Group 139" transform="translate(24.219 61.295)">
          <path id="Path_283" data-name="Path 283" d="M11.573,58.446c-.279-.358-.722-.706-1.186-.453a3.8,3.8,0,0,0-.58.474c-.206.174-.411.348-.611.527a14.324,14.324,0,0,0-2.171,2.314c-.2.274.258.538.453.269A12.852,12.852,0,0,1,9.3,59.611c.321-.3.659-.585,1-.87.116-.1.306-.337.474-.306s.332.248.437.379c.206.269.58-.105.369-.369Z" transform="translate(-6.976 -57.907)" fill="#7c4415"/>
        </g>
        <g id="Group_140" data-name="Group 140" transform="translate(23.244 59.064)">
          <path id="Path_284" data-name="Path 284" d="M7.23,61.793q.838-1.012,1.723-1.976c.306-.337.617-.664.928-.991.253-.264.532-.664.885-.79a.407.407,0,0,1,.543.221.974.974,0,0,1-.142.87,12.2,12.2,0,0,1-1.46,1.8c-.216.258.158.632.374.374a21.126,21.126,0,0,0,1.37-1.628,1.649,1.649,0,0,0,.29-1.729.973.973,0,0,0-1.37-.306,4.487,4.487,0,0,0-.833.78c-.285.3-.564.6-.843.9q-.949,1.028-1.839,2.1c-.216.258.153.638.374.374Z" transform="translate(-6.791 -57.483)" fill="#7c4415"/>
        </g>
        <g id="Group_141" data-name="Group 141" transform="translate(22.675 57.673)">
          <path id="Path_285" data-name="Path 285" d="M7.133,60.7a25.785,25.785,0,0,1,2.356-2.129l.585-.474c.169-.137.379-.369.617-.348a.757.757,0,0,1,.5,1.1c-.158.3.3.569.453.264a1.3,1.3,0,0,0-.258-1.581,1.143,1.143,0,0,0-.822-.306,1.471,1.471,0,0,0-.733.4,32.634,32.634,0,0,0-3.072,2.709c-.237.248.137.617.374.374Z" transform="translate(-6.683 -57.219)" fill="#7c4415"/>
        </g>
      </g>
    </g>
  </g>
</svg>
